<svg xmlns="http://www.w3.org/2000/svg" width="32.811" height="35.074" viewBox="0 0 32.811 35.074">
  <path id="Path_4" data-name="Path 4" d="M56.245,17.051H50.588v-3.96A5.1,5.1,0,0,0,45.5,8H44.366a5.076,5.076,0,0,0-3.677,1.575A5.076,5.076,0,0,0,37.011,8H35.88a5.1,5.1,0,0,0-5.091,5.091v3.96H24.566a.566.566,0,0,0-.566.566V42.508a.566.566,0,0,0,.566.566h31.68a.566.566,0,0,0,.566-.566V17.617A.566.566,0,0,0,56.245,17.051Zm-3.96,16.971a.566.566,0,0,0,.566-.566V18.183H55.68V41L52.711,37.61a.566.566,0,0,0-.852,0L48.891,41V18.183H51.72V33.457A.566.566,0,0,0,52.285,34.023ZM55,41.943H49.572l2.713-3.1ZM44.366,9.131H45.5a3.964,3.964,0,0,1,3.96,3.96v3.96H42.1v-3.96a5.059,5.059,0,0,0-.718-2.6A3.951,3.951,0,0,1,44.366,9.131Zm-3.677,2.493a3.937,3.937,0,0,1,.283,1.467v3.96h-.566v-3.96a3.937,3.937,0,0,1,.283-1.467ZM31.92,13.091a3.964,3.964,0,0,1,3.96-3.96h1.131a3.951,3.951,0,0,1,2.981,1.358,5.059,5.059,0,0,0-.718,2.6v3.96H31.92ZM25.131,41.943V18.183h5.657v1.7a.566.566,0,1,0,1.131,0v-1.7h9.051v1.7a.566.566,0,1,0,1.131,0v-1.7H47.76v23.76Z" transform="translate(-24 -8)"/>
</svg>
