<svg id="touch" xmlns="http://www.w3.org/2000/svg" width="28.174" height="39.647" viewBox="0 0 28.174 39.647">
  <path id="Path_1" data-name="Path 1" d="M7.056,24.968a2.945,2.945,0,0,0-3.372-4.73,11.788,11.788,0,0,1-2.135-6.8A11.91,11.91,0,0,1,12.757,1.548.775.775,0,0,0,12.668,0,13.461,13.461,0,0,0,0,13.434a13.325,13.325,0,0,0,2.515,7.833,2.944,2.944,0,0,0,4.541,3.7ZM3.988,21.9a1.395,1.395,0,1,1,0,1.972A1.391,1.391,0,0,1,3.988,21.9Zm0,0" transform="translate(0 0)"/>
  <path id="Path_2" data-name="Path 2" d="M77.3,39.226a2.753,2.753,0,0,0-1.35.351,2.77,2.77,0,0,0-4.641-1.088,2.807,2.807,0,0,0-.464-.387,13.459,13.459,0,0,0,7.965-12.286,13.332,13.332,0,0,0-2.515-7.833,2.946,2.946,0,1,0-1.171,1.028,11.911,11.911,0,0,1-7.034,18.4V33.236a7.908,7.908,0,1,0-10.644-7.42,7.843,7.843,0,0,0,1.571,4.732,7.989,7.989,0,0,0,3.529,2.661v11.4l-.973-1.6a2.854,2.854,0,0,0-3.887-.992,2.884,2.884,0,0,0-1.146,3.742l2.89,5.839a.775.775,0,1,0,1.389-.687l-2.887-5.832a1.321,1.321,0,0,1,2.318-1.262l2.41,3.954a.775.775,0,0,0,1.436-.4V29.588a1.222,1.222,0,0,1,2.445,0v3.065c0,.005,0,.011,0,.017V44.3a.775.775,0,0,0,1.55,0V40.409a1.222,1.222,0,1,1,2.444,0v4.176a.775.775,0,1,0,1.55,0V40.409a1.222,1.222,0,1,1,2.444,0v4.228a.775.775,0,1,0,1.55,0V42a1.222,1.222,0,1,1,2.445,0v9.255a.775.775,0,1,0,1.55,0V42A2.775,2.775,0,0,0,77.3,39.226ZM72.847,17.35a1.395,1.395,0,1,1,1.972,0A1.4,1.4,0,0,1,72.847,17.35ZM58.993,25.816a6.358,6.358,0,1,1,9.094,5.74V29.588a2.753,2.753,0,0,0-.281-1.214,3.548,3.548,0,1,0-4.959-.046,2.754,2.754,0,0,0-.3,1.26v1.936A6.325,6.325,0,0,1,58.993,25.816ZM63.909,27.2a1.98,1.98,0,0,1-.557-1.385,2,2,0,1,1,3.413,1.411,2.765,2.765,0,0,0-2.856-.027Zm0,0" transform="translate(-51.896 -12.382)"/>
  <path id="Path_3" data-name="Path 3" d="M199.97,5.116a.776.776,0,1,0-.547-.227A.78.78,0,0,0,199.97,5.116Zm0,0" transform="translate(-183.771 -3.29)"/>
</svg>
