<svg xmlns="http://www.w3.org/2000/svg" width="35.888" height="29.79" viewBox="0 0 35.888 29.79">
  <g id="digital-painting" transform="translate(-0.082 3.492)">
    <path id="Path_32" data-name="Path 32" d="M.608.712A.526.526,0,0,0,1.134.186V-1.845a.6.6,0,0,1,.6-.6h29.8a.526.526,0,0,0,.526-.526.525.525,0,0,0-.526-.526H1.729A1.649,1.649,0,0,0,.082-1.845V.186A.526.526,0,0,0,.608.712Zm0,0"/>
    <path id="Path_33" data-name="Path 33" d="M34.323-3.492h-.569a.525.525,0,0,0-.526.526.526.526,0,0,0,.526.526h.569a.6.6,0,0,1,.6.6V17.536H33.8V1.844a2,2,0,0,0-4,0V17.536H27.025a.526.526,0,0,0,0,1.051h2.783V20.34H1.729a.6.6,0,0,1-.6-.6V18.587H24.75a.526.526,0,0,0,0-1.051H1.134V2.415a.526.526,0,1,0-1.051,0V19.744a1.649,1.649,0,0,0,1.647,1.647h11v1.752H9.264a1.577,1.577,0,0,0,0,3.154H26.788a1.577,1.577,0,0,0,0-3.154h-3.47V21.391h6.49v1.384a.525.525,0,0,0,.043.209l1.117,2.7a.89.89,0,0,0,1.674,0l1.117-2.7a.527.527,0,0,0,.043-.209V21.391h.52a1.649,1.649,0,0,0,1.647-1.647V-1.845A1.649,1.649,0,0,0,34.323-3.492ZM27.313,24.72a.526.526,0,0,1-.526.526H9.264a.526.526,0,0,1,0-1.051H26.788A.526.526,0,0,1,27.313,24.72Zm-5.047-1.577H13.785V21.391h8.481ZM30.859,8.585h1.892c0,10.789,0,13,0,13.664H30.859Zm0-2.8h1.892V7.534H30.859ZM31.806.9a.947.947,0,0,1,.945.945v2.89H30.859V1.844A.947.947,0,0,1,31.806.9Zm0,24.059L31.12,23.3h1.371Zm2.517-4.618H33.8V18.587h1.116v1.157A.6.6,0,0,1,34.323,20.34Zm0,0" transform="translate(0 0)"/>
    <path id="Path_34" data-name="Path 34" d="M92.9,126.837a1.053,1.053,0,0,0-.852.436L90.808,129l-2.947-4.042a1.086,1.086,0,0,0-1.755,0l-4.983,6.835H79.87a1.577,1.577,0,1,0,0,3.154H98.264a1.577,1.577,0,1,0,0-3.154H97.012l-3.257-4.516A1.052,1.052,0,0,0,92.9,126.837Zm-5.947-1.264a.032.032,0,0,1,.028-.014.032.032,0,0,1,.028.014l4.531,6.216H82.425Zm11.833,7.792a.526.526,0,0,1-.526.526H79.87a.526.526,0,0,1,0-1.051H98.264A.526.526,0,0,1,98.789,133.366Zm-5.945-1.577-1.385-1.9,1.443-2,2.813,3.9Zm0,0" transform="translate(-73.817 -120.808)"/>
    <path id="Path_35" data-name="Path 35" d="M376.679,80.548a2,2,0,1,0-2,2A2,2,0,0,0,376.679,80.548Zm-2.944,0a.946.946,0,1,1,.946.946A.948.948,0,0,1,373.735,80.548Zm0,0" transform="translate(-351.667 -77.433)"/>
  </g>
</svg>
