<svg id="external" xmlns="http://www.w3.org/2000/svg" width="20.914" height="20.914" viewBox="0 0 20.914 20.914">
  <g id="Group_140" data-name="Group 140" transform="translate(7.605)">
    <g id="Group_139" data-name="Group 139">
      <path id="Path_493" data-name="Path 493" d="M198.542,0h-7.605a.951.951,0,1,0,0,1.9h5.31l-9.785,9.785a.951.951,0,1,0,1.344,1.344l9.785-9.785v5.31a.951.951,0,1,0,1.9,0V.951A.951.951,0,0,0,198.542,0Z" transform="translate(-186.184)" fill="#fff"/>
    </g>
  </g>
  <g id="Group_142" data-name="Group 142" transform="translate(0 3.803)">
    <g id="Group_141" data-name="Group 141">
      <path id="Path_494" data-name="Path 494" d="M16.161,98.795a.951.951,0,0,0-.951.951V108.3H1.9V94.992h8.556a.951.951,0,1,0,0-1.9H.951A.951.951,0,0,0,0,94.042v15.21a.951.951,0,0,0,.951.951h15.21a.951.951,0,0,0,.951-.951V99.745A.951.951,0,0,0,16.161,98.795Z" transform="translate(0 -93.091)" fill="#fff"/>
    </g>
  </g>
</svg>
