<svg id="Page-1" xmlns="http://www.w3.org/2000/svg" width="35.416" height="31.874" viewBox="0 0 35.416 31.874">
  <g id="_003---Camera" data-name="003---Camera" transform="translate(0)">
    <path id="Shape" d="M33.645,4.722h-.59V3.542a1.181,1.181,0,0,0-1.181-1.181H28.332a1.181,1.181,0,0,0-1.181,1.181V4.722H25.79L24.45,1.149A1.779,1.779,0,0,0,22.792,0H14.984a1.779,1.779,0,0,0-1.658,1.149l-1.34,3.573H10.625V3.542A1.181,1.181,0,0,0,9.444,2.361h-5.9A1.181,1.181,0,0,0,2.361,3.542V4.722h-.59A1.771,1.771,0,0,0,0,6.493V30.1a1.771,1.771,0,0,0,1.771,1.771H33.645A1.771,1.771,0,0,0,35.416,30.1V6.493A1.771,1.771,0,0,0,33.645,4.722ZM28.332,3.542h3.542V4.722H28.332Zm-13.9-1.978a.594.594,0,0,1,.553-.383h7.808a.59.59,0,0,1,.552.383l1.185,3.158H13.247ZM3.542,3.542h5.9V4.722h-5.9Zm30.1,27.152H23.867a11.215,11.215,0,1,0-9.956,0H1.771a.59.59,0,0,1-.59-.59v-18.3h8.854a.59.59,0,0,0,0-1.181H1.181V6.493a.59.59,0,0,1,.59-.59H33.645a.59.59,0,0,1,.59.59v4.132H27.742a.59.59,0,0,0,0,1.181h6.493V30.1A.59.59,0,0,1,33.645,30.693Zm-14.756,0A10.034,10.034,0,1,1,28.923,20.659,10.034,10.034,0,0,1,18.888,30.693Z" transform="translate(0)"/>
    <path id="Shape-2" data-name="Shape" d="M25.854,20a.59.59,0,0,0,0,1.181,7.673,7.673,0,1,1-7.673,7.673.59.59,0,1,0-1.181,0A8.854,8.854,0,1,0,25.854,20Z" transform="translate(-6.966 -8.195)"/>
    <path id="Shape-3" data-name="Shape" d="M29.951,35.9a2.951,2.951,0,0,0,0-5.9.59.59,0,0,0,0,1.181,1.771,1.771,0,1,1-1.771,1.771.59.59,0,1,0-1.181,0A2.955,2.955,0,0,0,29.951,35.9Z" transform="translate(-11.063 -12.292)"/>
    <path id="Shape-4" data-name="Shape" d="M14.034,13H4.59a.59.59,0,1,0,0,1.181h9.444a.59.59,0,1,0,0-1.181Z" transform="translate(-1.639 -5.327)"/>
    <path id="Shape-5" data-name="Shape" d="M52.59,14.181h1.181a.59.59,0,1,0,0-1.181H52.59a.59.59,0,1,0,0,1.181Z" transform="translate(-21.307 -5.327)"/>
    <path id="Shape-6" data-name="Shape" d="M32.493,4h-5.9a.59.59,0,1,0,0,1.181h5.9a.59.59,0,1,0,0-1.181Z" transform="translate(-10.653 -1.639)"/>
  </g>
</svg>
