<svg xmlns="http://www.w3.org/2000/svg" width="562.662" height="346.084" viewBox="0 0 562.662 346.084">
  <g id="Group_102" data-name="Group 102" transform="translate(0.02 0)">
    <path id="Path_418" data-name="Path 418" d="M573.732,310.042a115.3,115.3,0,0,1-3.377,27.822q-1.137,4.6-2.642,9.01a106.408,106.408,0,0,1-4.261,10.662q-1.218,2.637-2.575,5.169a69.535,69.535,0,0,1-5.814,27.941A72.033,72.033,0,0,1,520.1,426.664,73.534,73.534,0,0,1,488.9,433.83H117.89a93.477,93.477,0,0,1-47.016-12.568l-.22-.124Q67.6,419.35,64.7,417.354a93.345,93.345,0,0,1-12.215-10.07,90.9,90.9,0,0,1-13.428-16.639,88.786,88.786,0,0,1-13.658-47.4A111.787,111.787,0,0,1,11.07,287.885c0-25.8,8.389-49.328,22.17-67.142a94.393,94.393,0,0,1,9.416-10.476,87.62,87.62,0,0,1,10.768-8.814,83.782,83.782,0,0,1,9.554-5.732c1.381-.7,2.766-1.366,4.175-1.982,1.237-.549,2.489-1.061,3.755-1.543q2.279-.865,4.615-1.591t4.61-1.271q3.344-.817,6.8-1.328c1.911-.282,3.822-.478,5.732-.626,1.519-.115,3.053-.177,4.6-.2H98.1c1.7,0,3.392.067,5.068.182.177-.354.368-.712.545-1.061.669-1.275,1.361-2.546,2.059-3.788a.119.119,0,0,1,0-.033c.119-.22.239-.435.363-.645.564-1.018,1.151-2.025,1.753-3.024.277-.478.549-.927.831-1.376a3.659,3.659,0,0,1,.2-.325q.43-.717.874-1.433,2.212-3.535,4.6-6.946l.406-.583c.248-.354.478-.7.755-1.051.659-.922,1.338-1.849,2.021-2.756.478-.65.955-1.295,1.471-1.911q1.863-2.389,3.822-4.777t4.07-4.715c.191-.215.382-.425.583-.635l2.04-2.226h0c.1-.105.186-.2.282-.3h0c.244-.263.478-.525.74-.779,1.094-1.161,2.217-2.3,3.344-3.43a182.1,182.1,0,0,1,18.3-15.941c.253-.2.511-.392.764-.583,1.213-.912,2.446-1.815,3.678-2.7a193.619,193.619,0,0,1,21.215-13.232c.506-.291,1.022-.564,1.543-.831a202.549,202.549,0,0,1,20.3-9.344c3.779-1.5,7.643-2.9,11.532-4.185,2.589-.85,5.188-1.658,7.82-2.417q6.172-1.777,12.43-3.186a221.345,221.345,0,0,1,37.376-5.092q5.732-.291,11.594-.3a222.136,222.136,0,0,1,55.892,7.07,2.016,2.016,0,0,0,1.734.9H339.7c.7.191,1.39.382,2.088.583Q347.629,98,353.3,99.989l.955.344a205.627,205.627,0,0,1,27.186,11.943,196.186,196.186,0,0,1,22.763,14.064q1.677,1.2,3.306,2.427,1.978-1.266,4.022-2.427a79.118,79.118,0,0,1,16.662-7.1,76,76,0,0,1,37.376-1.462c15.884,3.368,30.263,11.728,41.876,23.618a97.711,97.711,0,0,1,12.559,15.946c.263.411.526.826.779,1.247a105.108,105.108,0,0,1,8,15.941c.081.205.162.4.234.6a110.382,110.382,0,0,1,4.92,15.932c.057.277.124.549.182.826a114.732,114.732,0,0,1,2.35,15.941,3.1,3.1,0,0,0,.038.588q.3,4.161.306,8.408c0,2.532-.086,5.045-.244,7.538,0,.272-.038.554-.062.836-.043.721-.105,1.433-.167,2.159a90.663,90.663,0,0,1,10.213,9.635q2.088,2.279,4.041,4.729a100.608,100.608,0,0,1,10.414,15.941A111.871,111.871,0,0,1,573.732,310.042Z" transform="translate(-11.09 -87.76)" fill="#e6a800" opacity="0.1"/>
    <path id="Path_419" data-name="Path 419" d="M584.9,774.112c0,3.263-11.24,6.32-30.855,8.947H183.036a93.478,93.478,0,0,1-47.016-12.568l-.22-.124c5.637-2.054,15.812-3.97,29.661-5.7h0l.621-.076c6.21-.76,13.151-1.481,20.737-2.164a4.717,4.717,0,0,0,.578-.053h0q9.029-.8,19.209-1.5c.215,0,.425-.038.64-.048q3.927-.282,8.016-.535h0l1.051-.067c19.849-1.232,42.411-2.217,66.879-2.866h.029q5.14-.143,10.39-.253,5.838-.139,11.818-.244c3.043-.067,6.124-.115,9.215-.162h.072c13.944-.21,28.352-.315,43.084-.315,36.43,0,70.863.664,101.374,1.858h.086c4.691.182,9.3.382,13.787.588l3.822.182q7.6.363,14.809.779h0C548.19,763,584.9,768.222,584.9,774.112Z" transform="translate(-76.236 -436.976)" fill="#e6a800" opacity="0.1"/>
    <g id="Group_97" data-name="Group 97" transform="translate(296.813 188.688)" opacity="0.2">
      <path id="Path_420" data-name="Path 420" d="M680.209,744.309a9.069,9.069,0,0,1-.177,1.533q-4.987-.793-10.032-1.433V744a8.065,8.065,0,0,1,1.194-4.051,4.444,4.444,0,0,1,8.088.248A8.059,8.059,0,0,1,680.209,744.309Z" transform="translate(-652.058 -615.785)" fill="#3f3d56"/>
      <ellipse id="Ellipse_31" data-name="Ellipse 31" cx="6.693" cy="5.111" rx="6.693" ry="5.111" transform="translate(17.997 126.729) rotate(-88.19)" fill="#3f3d56"/>
      <ellipse id="Ellipse_32" data-name="Ellipse 32" cx="6.693" cy="5.111" rx="6.693" ry="5.111" transform="translate(18.258 118.55) rotate(-88.19)" fill="#3f3d56"/>
      <ellipse id="Ellipse_33" data-name="Ellipse 33" cx="6.693" cy="5.111" rx="6.693" ry="5.111" transform="translate(18.514 110.372) rotate(-88.19)" fill="#3f3d56"/>
      <ellipse id="Ellipse_34" data-name="Ellipse 34" cx="6.693" cy="5.111" rx="6.693" ry="5.111" transform="translate(18.77 102.193) rotate(-88.19)" fill="#3f3d56"/>
      <path id="Path_421" data-name="Path 421" d="M639.142,521.825a23.712,23.712,0,0,1-1.815-2.866l13.5-1.782-14.532-.349a24.545,24.545,0,0,1,.148-19.414l19.166,10.725-17.556-13.777a24.5,24.5,0,1,1,39.573,28.662,24.265,24.265,0,0,1,2.651,4.553l-17.718,8.5,18.788-5.651a24.526,24.526,0,0,1-4.691,22.887,24.5,24.5,0,1,1-38.484-1.213,24.5,24.5,0,0,1,.955-30.277Z" transform="translate(-632.44 -482.747)" fill="#e6a800"/>
      <path id="Path_422" data-name="Path 422" d="M682.389,598.7a24.363,24.363,0,0,1-5.732,14.971,24.5,24.5,0,1,1-38.484-1.213C635.034,608.188,682.475,595.949,682.389,598.7Z" transform="translate(-632.44 -543.099)" opacity="0.1"/>
    </g>
    <g id="Group_98" data-name="Group 98" transform="translate(224.201 188.688)" opacity="0.2">
      <path id="Path_423" data-name="Path 423" d="M528.209,744.309a9.081,9.081,0,0,1-.177,1.533q-4.987-.793-10.032-1.433V744a8.064,8.064,0,0,1,1.194-4.051,4.444,4.444,0,0,1,8.088.248A8.059,8.059,0,0,1,528.209,744.309Z" transform="translate(-500.058 -615.785)" fill="#3f3d56"/>
      <ellipse id="Ellipse_35" data-name="Ellipse 35" cx="6.693" cy="5.111" rx="6.693" ry="5.111" transform="translate(17.992 126.731) rotate(-88.19)" fill="#3f3d56"/>
      <ellipse id="Ellipse_36" data-name="Ellipse 36" cx="6.693" cy="5.111" rx="6.693" ry="5.111" transform="translate(18.252 118.552) rotate(-88.19)" fill="#3f3d56"/>
      <ellipse id="Ellipse_37" data-name="Ellipse 37" cx="6.693" cy="5.111" rx="6.693" ry="5.111" transform="translate(18.508 110.374) rotate(-88.19)" fill="#3f3d56"/>
      <ellipse id="Ellipse_38" data-name="Ellipse 38" cx="6.693" cy="5.111" rx="6.693" ry="5.111" transform="translate(18.764 102.195) rotate(-88.19)" fill="#3f3d56"/>
      <path id="Path_424" data-name="Path 424" d="M487.142,521.825a23.724,23.724,0,0,1-1.815-2.866l13.5-1.782-14.532-.349a24.544,24.544,0,0,1,.148-19.414l19.166,10.725-17.556-13.777a24.5,24.5,0,1,1,39.573,28.662,24.266,24.266,0,0,1,2.651,4.552l-17.718,8.5,18.788-5.651a24.525,24.525,0,0,1-4.691,22.887,24.5,24.5,0,1,1-38.484-1.213,24.5,24.5,0,0,1,.955-30.277Z" transform="translate(-480.44 -482.747)" fill="#e6a800"/>
      <path id="Path_425" data-name="Path 425" d="M530.389,598.7a24.363,24.363,0,0,1-5.732,14.971,24.5,24.5,0,1,1-38.484-1.213C483.034,608.188,530.475,595.949,530.389,598.7Z" transform="translate(-480.44 -543.099)" opacity="0.1"/>
    </g>
    <g id="Group_99" data-name="Group 99" transform="translate(396.532 75.098)" opacity="0.2">
      <path id="Path_426" data-name="Path 426" d="M933.041,748.29a17.815,17.815,0,0,1-.349,2.9q-9.6-1.533-19.342-2.742v-.788a15.525,15.525,0,0,1,2.3-7.8c1.911-3,4.777-4.873,7.944-4.777s5.924,2.154,7.643,5.255A15.539,15.539,0,0,1,933.041,748.29Z" transform="translate(-878.877 -500.95)" fill="#3f3d56"/>
      <ellipse id="Ellipse_39" data-name="Ellipse 39" cx="12.889" cy="9.846" rx="12.889" ry="9.846" transform="translate(34.597 243.874) rotate(-88.19)" fill="#3f3d56"/>
      <ellipse id="Ellipse_40" data-name="Ellipse 40" cx="12.889" cy="9.846" rx="12.889" ry="9.846" transform="translate(35.094 228.129) rotate(-88.19)" fill="#3f3d56"/>
      <ellipse id="Ellipse_41" data-name="Ellipse 41" cx="12.889" cy="9.846" rx="12.889" ry="9.846" transform="translate(35.595 212.383) rotate(-88.19)" fill="#3f3d56"/>
      <ellipse id="Ellipse_42" data-name="Ellipse 42" cx="12.889" cy="9.846" rx="12.889" ry="9.846" transform="translate(35.541 195.957) rotate(-88.282)" fill="#3f3d56"/>
      <path id="Path_427" data-name="Path 427" d="M854.053,320.111a47.422,47.422,0,0,1-3.492-5.508l25.987-3.43-27.97-.674a47.245,47.245,0,0,1,.277-37.376l36.9,20.642-33.793-26.522a47.159,47.159,0,1,1,76.18,55.2,47.159,47.159,0,0,1,5.107,8.766l-34.113,16.381L935.306,336.7a47.174,47.174,0,0,1-9,44.021,47.159,47.159,0,1,1-74.092-2.336,47.174,47.174,0,0,1,1.834-58.28Z" transform="translate(-841.186 -244.965)" fill="#e6a800"/>
      <path id="Path_428" data-name="Path 428" d="M937.338,467.993a46.978,46.978,0,0,1-10.987,28.825,47.159,47.159,0,1,1-74.092-2.336C846.172,486.261,937.505,462.705,937.338,467.993Z" transform="translate(-841.207 -361.051)" opacity="0.1"/>
    </g>
    <path id="Path_429" data-name="Path 429" d="M157.82,340.707l5.011-.014H169.9l8.933-145.118L267.3,47.95l-3.846-4.127V33.37L167.775,192.155Z" transform="translate(-82.439 -17.429)" fill="#f1c0c0"/>
    <path id="Path_430" data-name="Path 430" d="M169.43,352.121h6.53L184.893,207,273.36,59.377l-3.846-4.127L178.263,204.791Z" transform="translate(-88.503 -28.857)" opacity="0.1"/>
    <path id="Path_431" data-name="Path 431" d="M126.91,668.167l229.228,17.541.2.014,221.842-13.643.167-.01V662.7L333.9,658.216l-203.938-.2h-1.49l-.162,1.051Z" transform="translate(-66.295 -343.68)" fill="#f1c0c0"/>
    <path id="Path_432" data-name="Path 432" d="M126.91,668.167l229.228,17.541.2.014,221.842-13.643.167-.182v-9h-.2l-222.009,7.414L129.963,658.02h-.033l-.4.263-1.218.788Z" transform="translate(-66.295 -343.68)" opacity="0.1"/>
    <path id="Path_433" data-name="Path 433" d="M126.91,668.454,356.138,686V670.6L129.528,658.57l-1.218.788Z" transform="translate(-66.295 -343.967)" opacity="0.1"/>
    <path id="Path_434" data-name="Path 434" d="M378.88,43.746,479.939,152.215l-3.124,190.8,8.584,1.037.143.019h8.584l1.027-183.659,189.234,63.21,3.191,112.548,6.908.774,2.341.263-5.417-121.39L493.592,146.363,385.124,33.6H378.88Z" transform="translate(-197.897 -17.549)" fill="#f1c0c0"/>
    <path id="Path_435" data-name="Path 435" d="M620.65,291.7l.779,3.511,189.234,63.21,3.191,112.548,6.908.774-5.417-115.662Z" transform="translate(-324.172 -152.353)" opacity="0.1"/>
    <path id="Path_436" data-name="Path 436" d="M378.88,43.746,479.939,152.215l-3.124,190.8,8.584,1.037,2.341-198.076L378.88,33.6Z" transform="translate(-197.897 -17.549)" opacity="0.1"/>
    <path id="Path_437" data-name="Path 437" d="M621.42,438.442l69.406,13.667.024,0,121.562,23.947,5.565-2.231-.019-.392-.363-7.763-196.1-39.626Z" transform="translate(-324.574 -222.523)" fill="#f1c0c0"/>
    <path id="Path_438" data-name="Path 438" d="M766.76,480.61l121.562,23.947,5.565-2.231-.019-.392Z" transform="translate(-400.484 -251.02)" opacity="0.1"/>
    <path id="Path_439" data-name="Path 439" d="M776.49,350.56l1.877,103.347.97,53.021,8.546-.287,5.379-.182-1.672-154.4-3.707-1.232-.812-.263Z" transform="translate(-405.566 -183.095)" fill="#f1c0c0"/>
    <path id="Path_440" data-name="Path 440" d="M776.65,350.51v.024l1.8,103.347.97,53.021,8.546-.287V350.51Z" transform="translate(-405.65 -183.069)" opacity="0.1"/>
    <path id="Path_441" data-name="Path 441" d="M491.948,486.377a10.889,10.889,0,0,1,1.433.932,9.482,9.482,0,0,1,1.433,1.572c2.049,2.651,3.941,5.732,3.74,9.076a3.693,3.693,0,0,1-1.065,2.627,4.775,4.775,0,0,1-3.167.755,6.743,6.743,0,0,1-3.511-.621c-1.041-.621-1.911-1.83-3.143-1.8a1.61,1.61,0,0,1-.526,0c-.425-.139-.511-.7-.788-1.051-.478-.635-1.486-.478-2.236-.2a3.241,3.241,0,0,1-2.322.373,2.412,2.412,0,0,1-1.008-1.008c-1.772-2.866-2.15-6.31-2.484-9.64-.205-2.025-1.772-8.933,2.551-7.361a35.848,35.848,0,0,1,5.436,3.072Z" transform="translate(-254.891 -292.519)" fill="#3f3d56"/>
    <path id="Path_442" data-name="Path 442" d="M497.449,492.155a2.131,2.131,0,0,0,2.623-.105,3.951,3.951,0,0,0,1.275-2.475c.478-.148.721.478,1.027.86.535.65,1.624.64,2.111,1.333.339.478.263,1.142.5,1.682.311.7,1.08,1.06,1.605,1.624a5.532,5.532,0,0,1,1.051,2.1l.783,2.35a11.617,11.617,0,0,1,.717,3.043,3.941,3.941,0,0,1-.908,2.909c-1.051,1.132-2.775,1.252-4.3,1.218a5.53,5.53,0,0,1-1.51-.177,4.285,4.285,0,0,1-2.575-3.153,39.8,39.8,0,0,1-.53-4.213,16.514,16.514,0,0,0-1.194-4c-.42-.994-1.576-2.475-1.557-3.53C496.914,491.615,497.162,491.931,497.449,492.155Z" transform="translate(-264.663 -297.614)" fill="#3f3d56"/>
    <path id="Path_443" data-name="Path 443" d="M494.875,478.138a7.887,7.887,0,0,1-.387-2.1,9.13,9.13,0,0,1,1.314-4.061l-5.46.74a2.418,2.418,0,0,0-1.768.774,1.911,1.911,0,0,0,0,1.763,9.009,9.009,0,0,1,.65,1.705,8.523,8.523,0,0,0,.177,1.533,3.249,3.249,0,0,0,.7.989,33.12,33.12,0,0,1,3.9,5.79c-.033-.057,3.291-2.632,3.158-3.473-.076-.478-1.037-1.051-1.342-1.51A7.687,7.687,0,0,1,494.875,478.138Z" transform="translate(-260.375 -288.436)" fill="#be6f72"/>
    <path id="Path_444" data-name="Path 444" d="M480.477,358.04v4.705L399.9,378.462l-4.18,2.532H381.3v-2.651l79.166-19.127Z" transform="translate(-199.161 -187.002)" fill="#f1c0c0"/>
    <path id="Path_445" data-name="Path 445" d="M480.477,367.89,399.9,383.607l-4.18,2.532H381.3l79.753-17.068Z" transform="translate(-199.161 -192.147)" opacity="0.1"/>
    <path id="Path_446" data-name="Path 446" d="M449.908,722.94a6.244,6.244,0,0,0-7.6-1.615,2,2,0,0,0-.7.545c-.478.669-.172,1.591-.129,2.417.11,2.016-1.5,3.654-2.938,5.064a6.945,6.945,0,0,0-1.911,2.589,2.426,2.426,0,0,0,.846,2.866,3.521,3.521,0,0,0,1.309.363,14.128,14.128,0,0,0,4.634.129,5.02,5.02,0,0,0,3.678-2.561,2.7,2.7,0,0,1,.616-1.018c.841-.664,2.131.115,3.086-.358.788-.392.822-1.008.831-1.82C451.666,727.3,451.332,724.755,449.908,722.94Z" transform="translate(-233.283 -418.325)" fill="#e6a800"/>
    <path id="Path_447" data-name="Path 447" d="M477.273,719a15.727,15.727,0,0,1,.745,4.887,4.715,4.715,0,0,1-.444,2.785,3.805,3.805,0,0,1-2.489,1.433,5.707,5.707,0,0,1-5.584-1.557,5.892,5.892,0,0,1-1.008-4.433c.153-1.285.478-2.79-.444-3.7-.239-.244-.549-.416-.769-.678a2.276,2.276,0,0,1-.143-2.178,9.464,9.464,0,0,0,.75-2.154c.038-.354,6.468.248,7.061.54.807.4.683,1.06.927,1.863C476.213,716.923,476.862,717.93,477.273,719Z" transform="translate(-249.183 -414.472)" fill="#e6a800"/>
    <path id="Path_448" data-name="Path 448" d="M457.15,579.966a5.308,5.308,0,0,1,1.944,3.912c.54,4.084-.406,8.212-.478,12.334-.067,5.776,1.605,11.656.177,17.25-.855,3.344-.129,7.166-.932,10.543-.239,1-.678,1.949-.908,2.952a12.881,12.881,0,0,0,.7,6.573,6.788,6.788,0,0,1,.406,1.782,6.41,6.41,0,0,1-.7,2.694l-2.866,6.779c-.32.76-1.581.884-2.389.984-1.519.182-3.215.311-4.424-.631s-1.5-2.518-1.686-3.989a61.143,61.143,0,0,1-.478-8.518,7.018,7.018,0,0,0-.2-2.212,19.384,19.384,0,0,1-1-2.389c-.2-1.118.368-2.217.578-3.344a10.073,10.073,0,0,0-.048-3.1c-.186-1.529-.4-3.057-.645-4.576a20.282,20.282,0,0,1,.478-6.354,17.518,17.518,0,0,0-.478-6.029,16.62,16.62,0,0,1-.6,4.777c-.253.76-.616,1.486-.836,2.259-.979,3.473,1.108,7.118.812,10.715-.139,1.682-.8,3.344-.611,5a16.874,16.874,0,0,0,1.08,3.482,4.514,4.514,0,0,1,0,3.559c-1.552,2.933-.392,6.922,1,9.931a13.42,13.42,0,0,1,.736,1.653c.411,1.357.067,2.814.177,4.228a2.666,2.666,0,0,1-2.24-.674c-.21-.22-.382-.478-.588-.707a5.831,5.831,0,0,0-2-1.247,2.623,2.623,0,0,0-1.433-.33,2.866,2.866,0,0,0-1.361.846,13.347,13.347,0,0,1-1.5,1.142,1.777,1.777,0,0,1-.764.339.673.673,0,0,1-.7-.358.849.849,0,0,1-.052-.248,37.8,37.8,0,0,1-.282-4.347c0-2.5-2.99-4.218-3.368-6.688-.3-1.992.258-4.022.072-6.029a29.291,29.291,0,0,1-.358-3.076c0-.669.153-1.323.205-1.987a14.865,14.865,0,0,0-.033-2.212l-.148-2.307a19.938,19.938,0,0,0-1.2-6.688,22.725,22.725,0,0,1-1.863-7.682c-.1-1.672-.033-3.344-.224-5.021a24.712,24.712,0,0,1-.444-4.538c.091-1.175.478-2.312.568-3.487.186-2.26-.674-4.457-1.347-6.621s-1.17-4.562-.287-6.65a2.183,2.183,0,0,1,.611-.889,2.665,2.665,0,0,1,1.127-.42,87.472,87.472,0,0,1,24.946-1.591A8.284,8.284,0,0,1,457.15,579.966Z" transform="translate(-227.881 -344.065)" fill="#3f3d56"/>
    <circle id="Ellipse_43" data-name="Ellipse 43" cx="7.653" cy="7.653" r="7.653" transform="translate(194.497 169.858)" fill="#be6f72"/>
    <path id="Path_449" data-name="Path 449" d="M427.952,471.16a2.733,2.733,0,0,1,0,1.333,3.019,3.019,0,0,1-.5.841A21.592,21.592,0,0,1,425,476a4.438,4.438,0,0,0,2.288,2.26,13.285,13.285,0,0,0,3.158.9,3.309,3.309,0,0,0,3.1-.535l4.252-2.546a8.494,8.494,0,0,0,1.768-1.275,4.352,4.352,0,0,0,1.232-2.99.822.822,0,0,0-.153-.564,1,1,0,0,0-.583-.244,5.181,5.181,0,0,1-3.344-2.919,15.458,15.458,0,0,1-1.161-4.428l-4.533,2.388c-.674.358-1.342.717-2.04,1.027-.444.2-1.342.368-1.658.774C426.72,468.6,427.795,470.257,427.952,471.16Z" transform="translate(-227.283 -284.09)" fill="#be6f72"/>
    <path id="Path_450" data-name="Path 450" d="M423.322,481.249a5.04,5.04,0,0,0-1.467,1.982,5.166,5.166,0,0,0,.268,2.909,86.8,86.8,0,0,1,2.866,12.32c.4,2.866.549,5.775.745,8.675.4,5.914.984,15.344,1.763,21.22,2.866.129,5.661-.707,8.5-1.013,5.312-.564,10.782.726,15.984-.478-1.261-4.982-2.522-13.49-3.783-18.468a35.24,35.24,0,0,1-1.156-6c-.11-1.457-.043-2.919-.024-4.385.043-2.866-.115-5.732-.272-8.6a54.554,54.554,0,0,0-1.156-9.96,1.854,1.854,0,0,0-.554-1.094,2.244,2.244,0,0,0-1.667-.148,7.252,7.252,0,0,1-4.959-1.175c-.631-.43-1.476-.955-2.064-.478a2.054,2.054,0,0,0-.478,1.018,5.088,5.088,0,0,1-2.99,2.947,14.968,14.968,0,0,1-4.232.869,2.078,2.078,0,0,1-1.314-.148c-.678-.416-.726-1.911-1.581-2.011C425,479.152,423.828,480.767,423.322,481.249Z" transform="translate(-225.576 -290.73)" fill="#3f3d56"/>
    <path id="Path_451" data-name="Path 451" d="M425.355,493.261c-1.763-1.686-2.537-4.132-3.822-6.21a13.825,13.825,0,0,0-3.3-3.631,9.845,9.845,0,0,1-1.8-1.524c-.454-.559-.8-1.3-1.486-1.519a1.8,1.8,0,0,0-1.61.444,15.842,15.842,0,0,0-1.194,1.271c-2.025,2.1-5.584,2.389-7.189,4.815a3.946,3.946,0,0,0-.855,1.791,13.882,13.882,0,0,0,2.551,9.984,3.392,3.392,0,0,0,1.768,1.433,5.532,5.532,0,0,0,.344,2.627,70.261,70.261,0,0,0,3.253,8.861,21.436,21.436,0,0,0-.64,3.435c-.334,2.919-.024,5.881-.339,8.8-.258,2.388-.955,4.715-.979,7.108,0,.382.033.836.363,1.032a1.1,1.1,0,0,0,.568.119l5.876.177a47.689,47.689,0,0,0,10.213-.43,4.251,4.251,0,0,0,1.285-.406c1.137-.635,1.514-2.068,1.7-3.344a29.141,29.141,0,0,0,.282-5c.712,2.25,1.557,4.576,3.707,5.551a8.317,8.317,0,0,0,3.683.444,69.339,69.339,0,0,0,8.021-.826,1.056,1.056,0,0,0,1.17-1.228l.029-2.608c.057-5.3-1.256-10.361-1.768-15.635a33.987,33.987,0,0,0-.554-4.973c-.167-.683-.411-1.352-.559-2.04a14.582,14.582,0,0,1-.239-2.04l-.373-5.255c-.177-2.432-.43-4.777-.616-7.2a34.871,34.871,0,0,0-1.022-7c-.416-1.433-1.28-3.057-2.775-3.234a5.721,5.721,0,0,0-2.331.5,9.42,9.42,0,0,1-5.732-.024,8.072,8.072,0,0,0-1.787-.478,1.753,1.753,0,0,0-1.634.678,2.451,2.451,0,0,0-.253,1.2A63.72,63.72,0,0,1,425.355,493.261Z" transform="translate(-216.306 -291.077)" fill="#e6a800"/>
    <path id="Path_452" data-name="Path 452" d="M418.134,503.622c-2.2-2.322-4.462-4.686-7.3-6.162a5.83,5.83,0,0,0-3.626-.8,2.715,2.715,0,0,0-2.331,2.551,16.506,16.506,0,0,0,.659,2.231,23.434,23.434,0,0,0,.191,2.608,4.415,4.415,0,0,0,.955,1.467l3.382,4.008a21.773,21.773,0,0,0,4.71,4.524,7.08,7.08,0,0,0,6.258.874,7.691,7.691,0,0,0,3.43-3.148c.841-1.338,1.433-2.8,2.221-4.18a20.755,20.755,0,0,1,4.777-5.795,5.307,5.307,0,0,1-2.866-1.433,4.736,4.736,0,0,1-.454-.822l-.774-1.672a1.911,1.911,0,0,0-1.433.54,12.017,12.017,0,0,1-1.065,1.084c-.674.506-1.586.645-2.2,1.223a5.819,5.819,0,0,0-.64.8,5.36,5.36,0,0,1-3.9,2.1Z" transform="translate(-216.772 -301.294)" fill="#3f3d56"/>
    <path id="Path_453" data-name="Path 453" d="M455.341,475.542c1.658-3.024,1.581-6.65,2.054-10.065a4.6,4.6,0,0,1,.912-2.5c.955-1.08,2.642-1.094,4.084-.955.425.048.955.248.932.674a.86.86,0,0,1-.215.406,11.365,11.365,0,0,0-2.36,6.267c.75.521,1.911-.549,2.632,0,.478.4.258,1.194-.029,1.768q-1,1.992-2.059,3.955a12.7,12.7,0,0,1-2.183,3.148c-.607.583-1.318,1.041-1.935,1.615-1.433,1.342-2.3,3.239-3.779,4.548a.774.774,0,0,1-.478.244.8.8,0,0,1-.5-.225,7.242,7.242,0,0,1-1.806-2.183c-.564-1.041-.478-1.347.411-2.083A15.789,15.789,0,0,0,455.341,475.542Z" transform="translate(-240.474 -283.204)" fill="#be6f72"/>
    <path id="Path_454" data-name="Path 454" d="M417.035,500.015c.287.177.64.377.955.229a.994.994,0,0,0,.32-.311,11.242,11.242,0,0,0,1.357-2.36.907.907,0,0,0,.1-.382c0-.306-.272-.53-.525-.707a19.471,19.471,0,0,0-4.342-2.064,8.961,8.961,0,0,0-3.917-.774,3.736,3.736,0,0,0-2.613,1.328c-.955,1.228.645,1.6,1.648,2.045C412.339,498.076,414.852,498.687,417.035,500.015Z" transform="translate(-218.444 -299.742)" fill="#e6a800"/>
    <path id="Path_455" data-name="Path 455" d="M423.672,519.261a.7.7,0,0,0,.2.6c.139-.678-.043-1.395.1-2.078.21-1.027,1.209-1.8,1.295-2.833C423.438,514.594,423.686,518.153,423.672,519.261Z" transform="translate(-226.585 -310.867)" opacity="0.1"/>
    <path id="Path_456" data-name="Path 456" d="M567.031,358.04v4.705l-19.424,1.18-.588-4.71Z" transform="translate(-285.715 -187.002)" opacity="0.2"/>
    <path id="Path_457" data-name="Path 457" d="M417.308,449.373c1.213-.989.511-3.062,1.333-4.39a4.265,4.265,0,0,1,2.078-1.433,9.454,9.454,0,0,1,3.033-.841,3.52,3.52,0,0,1,2.866,1.056c.311.354.521.783.812,1.151a3.105,3.105,0,0,0,3.01,1.041c.635-.143,1.295-.626,1.252-1.276a1.8,1.8,0,0,0-.573-1.022l-1.366-1.514c-1.553-1.72-3.277-3.545-5.556-3.975a9.53,9.53,0,0,0-4.739.635c-.616.205-1.309.511-1.481,1.137-.115.43.057.9-.043,1.333-.2.865-1.3,1.156-1.82,1.882s-.358,1.586-.506,2.389a20.893,20.893,0,0,0-.631,2.417c-.033.5.22,1.433.783,1.615S416.959,448.776,417.308,449.373Z" transform="translate(-222.046 -270.725)" fill="#3f3d56"/>
    <path id="Path_458" data-name="Path 458" d="M430.784,439.706a14.332,14.332,0,0,0-2.541-5.809,10.18,10.18,0,0,0-4.524-3.592,6.478,6.478,0,0,0-5.632.444,8.178,8.178,0,0,0-2.814,3.549c-1.237,2.666-1.7,5.924-.258,8.484.573-.7,1.557-.382,2.427-.635a25.3,25.3,0,0,0,3.048-1.49C423.618,439.276,427.44,440.393,430.784,439.706Z" transform="translate(-221.602 -266.437)" fill="#fed253"/>
    <path id="Path_459" data-name="Path 459" d="M417.374,447.334a2.919,2.919,0,0,1,.43-2.47.31.31,0,0,1,.253-.115.33.33,0,0,1,.2.172,10.693,10.693,0,0,1,.9,1.758,1.825,1.825,0,0,0-1.911.74" transform="translate(-223.23 -274.213)" opacity="0.1"/>
    <path id="Path_460" data-name="Path 460" d="M440.645,442.484l-.172-1.705a.779.779,0,0,1,.034-.42.54.54,0,0,1,.7-.191,1.434,1.434,0,0,1,.559.559,10.033,10.033,0,0,1,.984,1.944,5.78,5.78,0,0,0-2.326.029" transform="translate(-235.337 -271.79)" opacity="0.1"/>
    <path id="Path_461" data-name="Path 461" d="M416.224,502.21v3.9l-3.291.22H395.62V502.21Z" transform="translate(-206.64 -262.301)" opacity="0.1"/>
    <path id="Path_462" data-name="Path 462" d="M356.379,428.206v4.118h-20.6L281.04,363.759V360.52h11.475Z" transform="translate(-146.796 -188.297)" fill="#f1c0c0"/>
    <path id="Path_463" data-name="Path 463" d="M356.379,428.206v4.118h-20.6L281.04,363.759V360.52h11.475Z" transform="translate(-146.796 -188.297)" opacity="0.1"/>
    <path id="Path_464" data-name="Path 464" d="M356.379,428.206v4.118h-20.6L281.04,363.759V360.52l55.032,67.686Z" transform="translate(-146.796 -188.297)" opacity="0.1"/>
    <path id="Path_465" data-name="Path 465" d="M300.91,730.3a1.433,1.433,0,0,1-1.252,1.686,8.513,8.513,0,0,0-3.678,1.911c-.941,1.018-1.127,2.9,0,3.731a3.626,3.626,0,0,0,1.911.521,12.947,12.947,0,0,0,6.382-.8c1.4-.65,2.728-1.758,4.271-1.658.8.048,1.648.42,2.36.057s.912-1.376.917-2.221a16.445,16.445,0,0,0-.788-5.2c-.072-.229-3.11-.406-3.473-.478l-3.683-.478c-.7-.091-2.2-.616-2.752-.033S300.91,729.6,300.91,730.3Z" transform="translate(-159.491 -421.664)" fill="#e6a800"/>
    <path id="Path_466" data-name="Path 466" d="M353.02,701.114a11.537,11.537,0,0,0,.755,2.5,5.828,5.828,0,0,0,2.417,3.311,4.315,4.315,0,0,0,3.688-.177,3.037,3.037,0,0,0,1.228-.932,3.7,3.7,0,0,0,.478-2.145,11.718,11.718,0,0,0-.955-5.4c-.726-1.433-1.992-2.666-2.011-4.252l-4.352.841a1.242,1.242,0,0,0-.64.253,1.1,1.1,0,0,0-.277.521A14.221,14.221,0,0,0,353.02,701.114Z" transform="translate(-189.622 -404.406)" fill="#e6a800"/>
    <path id="Path_467" data-name="Path 467" d="M244.281,605.244a7.111,7.111,0,0,0,.7,4.514,3.494,3.494,0,0,0,3.955,1.677.578.578,0,0,0,.358-.272.674.674,0,0,0-.062-.478,7.051,7.051,0,0,1,.148-5.312c.1-.22.3-.478.525-.392a.478.478,0,0,1,.215.22,2.5,2.5,0,0,1,.334,1.318,4.9,4.9,0,0,0-.038,1.266c.091.411.53.8.912.621a.955.955,0,0,0,.435-.616c1.065-3.081.583-6.449.1-9.674a.506.506,0,0,0-.568-.53c-2.255-.225-3.487-.764-4.777,1.333A13.094,13.094,0,0,0,244.281,605.244Z" transform="translate(-132.852 -353.918)" fill="#e6a800"/>
    <path id="Path_468" data-name="Path 468" d="M298.035,595.96a29.294,29.294,0,0,0-.984,13.768l.5,4.137c.172,1.395.339,2.785.583,4.166a11.06,11.06,0,0,1,.253,2.164,11.593,11.593,0,0,1-.339,2.126,24.843,24.843,0,0,0-.5,4.443c-.053,2.389.244,4.777.43,7.166a79.8,79.8,0,0,1-.167,14.293,5.36,5.36,0,0,0,.783,3.683,4.738,4.738,0,0,1,.693,1.137c.358,1.094-.478,2.188-.693,3.31a3.344,3.344,0,0,0,2.78,3.822c3.822.454,7.748.248,11.193,2,.363-1.06-.43-2.264-.067-3.344.229-.669.86-1.1,1.29-1.667a4.854,4.854,0,0,0,.822-2.914,10.647,10.647,0,0,0-.707-3.951,8.545,8.545,0,0,1-.955-3.215,4.062,4.062,0,0,0-.029-1.648,2.575,2.575,0,0,0-.616-.769,9.712,9.712,0,0,1-2.5-5.661,26.074,26.074,0,0,1,.2-6.277c.234-1.978.549-4.065,1.806-5.608a35.985,35.985,0,0,1,1.008-13.973c.124-.42.32-.908.75-1.008a1.07,1.07,0,0,1,.917.363,6.263,6.263,0,0,1,1.433,2.694,5.875,5.875,0,0,1,.449,3.263c-.115.478-.344.9-.478,1.357a4.022,4.022,0,0,0,.143,2.8,2.7,2.7,0,0,1,.344,1.056,2.923,2.923,0,0,1-.287.917,4.223,4.223,0,0,0,.4,3.416,12.367,12.367,0,0,0,2.231,2.737,10.032,10.032,0,0,0,.311,5.522.7.7,0,0,1,.062.53c-.086.182-.306.248-.478.378-.478.392-.182,1.132.139,1.643a37.691,37.691,0,0,0,2.9,4.022c.955,1.142.869,3.344,2.293,3.755a4.3,4.3,0,0,0,1.815,0c1.4-.215,2.971-.621,3.659-1.863a5.014,5.014,0,0,1,.836-1.514c.44-.382,1.008-.449,1.252-.908s-.029-1.06.053-1.591.545-.955.693-1.514c.353-1.29-1.151-2.35-1.357-3.669-.3-1.911,2.111-3.344,2.011-5.255-.21-4.151-.344-8.322-.559-12.473a89.938,89.938,0,0,1-.115-11.174c.167-2.317.478-4.744-.373-6.9-1.223-3.038-4.6-4.744-7.858-5.068s-6.516.449-9.75.956a61.625,61.625,0,0,1-16.218.339Z" transform="translate(-160.246 -352.473)" fill="#3f3d56"/>
    <circle id="Ellipse_44" data-name="Ellipse 44" cx="7.653" cy="7.653" r="7.653" transform="translate(139.833 182.522)" fill="#fbbebe"/>
    <path id="Path_469" data-name="Path 469" d="M309.849,499.605a3.263,3.263,0,0,1-3.119,1.973,3.847,3.847,0,0,0,1.147,3.205A13.605,13.605,0,0,0,320.9,509.25a6.425,6.425,0,0,0,2.565-1.07,5.689,5.689,0,0,0,1.959-3.392,16.864,16.864,0,0,0,.186-3.989,1.032,1.032,0,0,0-.21-.736,1.051,1.051,0,0,0-.669-.22,11.6,11.6,0,0,1-4.72-1c-1.419-.793-2.427-2.584-1.744-4.056-.11.229-2.9.339-3.267.387-1.151.162-2.3.344-3.449.554a6.272,6.272,0,0,0-1.619.306c-.693.358-.435.182-.272.831C309.9,497.862,310.26,498.573,309.849,499.605Z" transform="translate(-165.478 -300.349)" fill="#fbbebe"/>
    <path id="Path_470" data-name="Path 470" d="M285.236,508.52a12.673,12.673,0,0,1-3.062-.339,4.3,4.3,0,0,1-2.513-1.677c-.354-.535-.583-1.209-1.146-1.51-.922-.478-1.973.33-2.709,1.07a9.84,9.84,0,0,1-2.3,1.853c-1.022.54-2.217.731-3.182,1.366a8,8,0,0,0-1.911,2.064l-6.769,9.22c-2.718,3.707-5.083,7.686-7.5,11.6-2.1,3.387-3.2,7.285-4.777,10.94a1.223,1.223,0,0,0-.148.736c.057.248.358.449.568.306-.712.707-.086,1.911-.253,2.9a3.563,3.563,0,0,1-1.137,1.782,8.982,8.982,0,0,1,3.153.148,9.664,9.664,0,0,1,2.981,1.433c.578-.091.525-1.118.955-1.5.258-.224.64-.2.979-.263,1.275-.248,1.782-1.782,2.761-2.646.817-.721,1.973-.955,2.838-1.634,1.4-1.1,1.705-3.067,2.441-4.7.626-1.381,1.61-2.584,2.159-4a17.226,17.226,0,0,1,1.041-2.756,7.892,7.892,0,0,1,3.822-2.747,6.329,6.329,0,0,1,2.909-.779,27.018,27.018,0,0,0,.148,6.578c.167.764.4,1.51.6,2.269a42.727,42.727,0,0,1,1.17,10.51,31.979,31.979,0,0,1,6.688-.8c1.772-.052,3.54.177,5.312.143,2.1-.038,4.18-.444,6.282-.588a11.735,11.735,0,0,1,6.158.955,58.5,58.5,0,0,1,.253-9.076l.506-4.748a29.173,29.173,0,0,1,.635-4.1c.277-1.089.678-2.14.984-3.224,1.075-3.822.879-7.9.674-11.881a14.975,14.975,0,0,0-1.82-5.876,15.9,15.9,0,0,0-1.146-1.949,11.288,11.288,0,0,0-9.869-4.634,2,2,0,0,0-.707.153,2.356,2.356,0,0,0-.9,1.075A11.7,11.7,0,0,1,285.236,508.52Z" transform="translate(-135.041 -304.611)" fill="#3f3d56"/>
    <path id="Path_471" data-name="Path 471" d="M303.2,478.3c.215-.478.793-.654,1.146-1.037.678-.726.373-1.887.478-2.866a4.117,4.117,0,0,1,2.723-3.143,8.8,8.8,0,0,1,4.3-.272,4.161,4.161,0,0,1,1.939.645c.248.182.478.416.712.583a1.911,1.911,0,0,0,2.6-.607c-1.691-2.035-3.564-4.185-6.134-4.811a12.58,12.58,0,0,0-2.68-.253,8.7,8.7,0,0,0-3.516.411,5.861,5.861,0,0,0-3.086,3.564,17.326,17.326,0,0,0-.75,4.777,18,18,0,0,0,0,3.248,8.981,8.981,0,0,0,1.6,4.094,1.237,1.237,0,0,0,.478.444C305.181,484.033,303.022,478.7,303.2,478.3Z" transform="translate(-162.443 -285.589)" fill="#3f3d56"/>
    <path id="Path_472" data-name="Path 472" d="M315.107,465.057c-.263-2.25-1.868-4.108-3.573-5.6a13.176,13.176,0,0,0-4.8-2.89,6.415,6.415,0,0,0-5.417.659,8.323,8.323,0,0,0-2.637,3.626,11.413,11.413,0,0,0-1.151,5.255,5.665,5.665,0,0,0,2.565,4.548,4.824,4.824,0,0,1,2.484-1.6,121.6,121.6,0,0,1,12.53-3.994Z" transform="translate(-160.703 -280.223)" fill="#fed253"/>
    <path id="Path_473" data-name="Path 473" d="M303.432,472.72c.153,0,.253.158.33.287a12.108,12.108,0,0,1,1,1.911c-.559.119-1.519.253-1.8-.239C302.816,474.43,302.992,472.7,303.432,472.72Z" transform="translate(-163.517 -288.822)" opacity="0.1"/>
    <path id="Path_474" data-name="Path 474" d="M326.518,467.881c-.115.11-.248-.115-.248-.277V465.75a.272.272,0,0,1,.033-.148.224.224,0,0,1,.158-.076c.387-.043.707.287.955.6a10.088,10.088,0,0,1,.979,1.629l-2.021-.062" transform="translate(-175.716 -285.063)" opacity="0.1"/>
    <path id="Path_475" data-name="Path 475" d="M362.848,521.284a12.5,12.5,0,0,1,1.4-1.151,21.2,21.2,0,0,1,4.409-1.8,5.819,5.819,0,0,0,3.573-2.957,7.023,7.023,0,0,0,.277-2.866,2.866,2.866,0,0,0-.21-1.18,2.345,2.345,0,0,0-.755-.822c-2.016-1.49-4.72-1.61-7.223-1.457a45.274,45.274,0,0,0-15.96,3.984,1.385,1.385,0,0,0-.669.478,1.366,1.366,0,0,0-.129.664,10.987,10.987,0,0,0,.54,4.161c.659,1.7,2.016,3.072,2.584,4.806.258.779.344,1.605.568,2.388a3.344,3.344,0,0,0,1.342,2c1.887,1.127,3.669-.387,4.978-1.562Z" transform="translate(-186.828 -307.774)" fill="#3f3d56"/>
    <path id="Path_476" data-name="Path 476" d="M309.134,523.627l-2.422-5.283a18.49,18.49,0,0,1-.917-2.26c-.277-.922-.411-1.877-.669-2.8-.85-3.086-3-5.656-4.041-8.68a1.648,1.648,0,0,0-.392-.731,1.275,1.275,0,0,0-1.065-.191c-1.462.253-2.6,1.366-3.941,2-.621.287-1.29.478-1.911.807a2.389,2.389,0,0,0-1.28,1.524,3.725,3.725,0,0,0,.521,2.145,24.224,24.224,0,0,1,1.653,9.42c.043,2.159-.067,4.476-1.342,6.21-2.451,3.344-.884,8.255.033,12.3.11.478.239.994.315,1.5a13.781,13.781,0,0,1,.11,1.911,14.954,14.954,0,0,1-1.018,6.3,7.05,7.05,0,0,0,2.866.812q4.161.53,8.355.745a9.1,9.1,0,0,0,2.623-.134,4.777,4.777,0,0,0,3.53-4.681,5.906,5.906,0,0,0,1.395,3.678,5.556,5.556,0,0,0,3.664,1.127,68.125,68.125,0,0,0,11.035-.311,1.909,1.909,0,0,0,.678-.158c.707-.353.745-1.328.688-2.111-.105-1.467-.215-2.933-.392-4.39a17.967,17.967,0,0,1-.229-2.809,16.163,16.163,0,0,1,.478-2.866,32.5,32.5,0,0,0,.932-9.076,15.317,15.317,0,0,1-.091-2.24c.124-1.686,1.013-3.291.846-4.968-.478-4.93-.865-9.989-2.24-14.747a3.822,3.822,0,0,0-1.3-2.25c-.955-.64-2.3-.306-3.392-.712a8.483,8.483,0,0,1-1.457-.865,6.688,6.688,0,0,0-3.291-1.013,2.794,2.794,0,0,0-2.389.869,3.468,3.468,0,0,0-.478,1.3c-.693,2.914-1.5,5.795-2.317,8.675l-.779,2.761-2.088,7.414C309.205,522.638,309.344,522.882,309.134,523.627Z" transform="translate(-157.826 -303.5)" fill="#e6a800"/>
    <path id="Path_477" data-name="Path 477" d="M332.359,400.25l46.209,48.559v4.118h-20.6l-34.725-45.32" transform="translate(-168.837 -209.048)" fill="#f1c0c0"/>
    <path id="Path_478" data-name="Path 478" d="M332.359,400.25l46.209,48.559v4.118h-20.6l-34.725-45.32" transform="translate(-168.837 -209.048)" opacity="0.1"/>
    <path id="Path_479" data-name="Path 479" d="M323.976,414.31l.148.053,34.137,41.79h20.307v4.118h-20.6L323.24,414.95Z" transform="translate(-168.837 -216.392)" opacity="0.1"/>
    <path id="Path_480" data-name="Path 480" d="M342.489,502.027c-1.672.731-3.53,1.667-4.032,3.425a1.715,1.715,0,0,0,1.691,2.3,5.732,5.732,0,0,0,2.3-.42l9.865-3.258c.268-.086.573-.215.64-.478a.822.822,0,0,0-.1-.478c-.306-.745-.607-2.269-1.247-2.79-.525-.42-1.567-.272-2.2-.263A17.858,17.858,0,0,0,342.489,502.027Z" transform="translate(-182.033 -303.087)" fill="#e6a800"/>
    <path id="Path_481" data-name="Path 481" d="M363.107,503.37a15.866,15.866,0,0,1,4.9.76,8.723,8.723,0,0,1,4.056,2.771,3.038,3.038,0,0,1,.64,1.252c.1.478,1.653.764,1.309,1.089,1.046-.167.8.325,1.858.315a3.511,3.511,0,0,0,2.842-1.127,3.693,3.693,0,0,0,.559-2.336,3.98,3.98,0,0,0-.315-1.653,4.88,4.88,0,0,0-2.589-2.006l-8.532-3.9a5.666,5.666,0,0,0-1.576-.559,5.893,5.893,0,0,0-1.39.033l-3.865.444a5.8,5.8,0,0,1,2.642,5.1" transform="translate(-193.856 -301.997)" fill="#3f3d56"/>
  </g>
</svg>
