<svg id="ps-logo-NEW" xmlns="http://www.w3.org/2000/svg" width="99.624" height="54.4" viewBox="0 0 99.624 54.4">
  <path id="Path_17" data-name="Path 17" d="M77.2,17.1a6.525,6.525,0,0,1-3.9,1.3,6.04,6.04,0,0,1-6.1-6,6.1,6.1,0,0,1,6.1-6,6.525,6.525,0,0,1,3.9,1.3l1.3-1.3a8.02,8.02,0,0,0-13.2,5.9,8.02,8.02,0,0,0,13.2,5.9Z" fill="#010101"/>
  <g id="Group_15" data-name="Group 15">
    <path id="Path_18" data-name="Path 18" d="M53.6,30.9a1.216,1.216,0,0,0,1.2-1.2,1.155,1.155,0,0,0-1.2-1.2,1.216,1.216,0,0,0-1.2,1.2A1.155,1.155,0,0,0,53.6,30.9Z" fill="#ef4651"/>
    <rect id="Rectangle_37" data-name="Rectangle 37" width="1.8" height="15.6" transform="translate(52.7 33.1)" fill="#ef4651"/>
  </g>
  <path id="Path_19" data-name="Path 19" d="M15.1,12.4A7.6,7.6,0,0,0,7.6,4.7,7.41,7.41,0,0,0,1.9,7.4V4.7H.1V25.9H1.9V17.6a7.41,7.41,0,0,0,5.7,2.7A7.842,7.842,0,0,0,15.1,12.4Zm-7.6,6a5.762,5.762,0,0,1-5.7-5.7v-.2A5.807,5.807,0,0,1,7.5,6.6a5.872,5.872,0,0,1,5.7,5.9A5.806,5.806,0,0,1,7.5,18.4Z" fill="#010101"/>
  <path id="Path_20" data-name="Path 20" d="M21.9,48.7A7.41,7.41,0,0,0,27.6,46v2.7h1.8V33.1H27.6v2.7a7.41,7.41,0,0,0-5.7-2.7,7.806,7.806,0,0,0,0,15.6Zm-5.7-7.8A5.807,5.807,0,0,1,21.9,35a5.872,5.872,0,0,1,5.7,5.9v.2a5.7,5.7,0,1,1-11.4-.2Z" fill="#ef4651"/>
  <path id="Path_21" data-name="Path 21" d="M49.3,40.9a7.6,7.6,0,0,0-7.5-7.7,7.41,7.41,0,0,0-5.7,2.7V33.2H34.3V54.4h1.8V46.1a7.41,7.41,0,0,0,5.7,2.7A7.842,7.842,0,0,0,49.3,40.9Zm-7.5,6a5.762,5.762,0,0,1-5.7-5.7V41a5.807,5.807,0,0,1,5.7-5.9,5.9,5.9,0,0,1,0,11.8Z" fill="#ef4651"/>
  <path id="Path_22" data-name="Path 22" d="M28.8,4.6v9.2a4.652,4.652,0,0,1-4.6,4.6,4.5,4.5,0,0,1-4.5-4.6V4.6H17.9v9.2a6.359,6.359,0,0,0,6.3,6.4,6.445,6.445,0,0,0,6.4-6.4V4.6Z" fill="#010101"/>
  <path id="Path_23" data-name="Path 23" d="M41.8,4.6a7.41,7.41,0,0,0-5.7,2.7V0H34.3V20.2h1.8V17.5a7.41,7.41,0,0,0,5.7,2.7,7.663,7.663,0,0,0,7.5-7.7A7.712,7.712,0,0,0,41.8,4.6Zm5.7,7.9a5.807,5.807,0,0,1-5.7,5.9,5.872,5.872,0,0,1-5.7-5.9v-.2a5.7,5.7,0,1,1,11.4.2Z" fill="#010101"/>
  <path id="Path_24" data-name="Path 24" d="M60.8,2.4A1.216,1.216,0,0,0,62,1.2,1.155,1.155,0,0,0,60.8,0a1.216,1.216,0,0,0-1.2,1.2A1.155,1.155,0,0,0,60.8,2.4Z" fill="#010101"/>
  <rect id="Rectangle_38" data-name="Rectangle 38" width="1.8" height="15.6" transform="translate(59.9 4.6)" fill="#010101"/>
  <path id="Path_25" data-name="Path 25" d="M83.7,2.4a1.216,1.216,0,0,0,1.2-1.2A1.155,1.155,0,0,0,83.7,0a1.216,1.216,0,0,0-1.2,1.2A1.155,1.155,0,0,0,83.7,2.4Z" fill="#010101"/>
  <rect id="Rectangle_39" data-name="Rectangle 39" width="1.8" height="15.6" transform="translate(82.8 4.6)" fill="#010101"/>
  <path id="Path_26" data-name="Path 26" d="M83.5,33.1a6.287,6.287,0,0,0-4.6,2v-2H77.1V48.7h1.8V39.5A4.633,4.633,0,0,1,83.5,35,4.481,4.481,0,0,1,88,39.5v9.2h1.8V39.5A6.3,6.3,0,0,0,83.5,33.1Z" fill="#ef4651"/>
  <path id="Path_27" data-name="Path 27" d="M99.4,46.9h-.2c-.2,0-.5.1-.9.1-.7,0-1.1-.5-1.1-1.6V34.8h2.2V33H97.2V27.8H95.3V33H93.1v1.8h2.2V45.5a3.136,3.136,0,0,0,.7,2.4,2.268,2.268,0,0,0,1.8.7,6.052,6.052,0,0,0,1.5-.2h.1Z" fill="#ef4651"/>
  <path id="Path_28" data-name="Path 28" d="M70.7,44.2a5.5,5.5,0,0,1-4.8,2.7,5.791,5.791,0,0,1-5.7-5.5H72.5a.882.882,0,0,0,.9-.8v-.1a7.561,7.561,0,0,0-7.5-7.2,7.705,7.705,0,0,0-7.6,7.8,7.619,7.619,0,0,0,7.6,7.7,7.506,7.506,0,0,0,6.3-3.5ZM66,35a5.574,5.574,0,0,1,5.5,4.6H60.3A5.87,5.87,0,0,1,66,35Z" fill="#ef4651"/>
  <path id="Path_29" data-name="Path 29" d="M10.2,41.2a4.689,4.689,0,0,0-1-.6,12.692,12.692,0,0,0-2.8-.8,1.268,1.268,0,0,0-.6-.1,9.118,9.118,0,0,1-2.4-1,1.733,1.733,0,0,1-.8-1.4,2.2,2.2,0,0,1,1-1.6A4.2,4.2,0,0,1,6.4,35a5.9,5.9,0,0,1,3.3,1.5l.1.1,1.3-1.2a3.807,3.807,0,0,0-.6-.5,6.94,6.94,0,0,0-4.1-1.5,6.3,6.3,0,0,0-3.9.9,3.908,3.908,0,0,0-1.8,3,3.236,3.236,0,0,0,1,2.5,8.485,8.485,0,0,0,4.1,1.8,6.465,6.465,0,0,1,3,1.2,2.248,2.248,0,0,1,1,1.8,2.215,2.215,0,0,1-1.2,1.7,5.117,5.117,0,0,1-2.8.8,8.608,8.608,0,0,1-4.4-1.8l-.1-.1L0,46.4l.1.1a9.061,9.061,0,0,0,5.6,2.4,5.794,5.794,0,0,0,3.9-1.1,3.8,3.8,0,0,0,1.9-3.1A3.275,3.275,0,0,0,10.2,41.2Z" fill="#ef4651"/>
  <path id="Path_30" data-name="Path 30" d="M98.2,12.7a4.689,4.689,0,0,0-1-.6,12.692,12.692,0,0,0-2.8-.8,1.268,1.268,0,0,0-.6-.1,9.118,9.118,0,0,1-2.4-1,1.733,1.733,0,0,1-.8-1.4,2.2,2.2,0,0,1,1-1.6,4.2,4.2,0,0,1,2.8-.7A5.9,5.9,0,0,1,97.7,8l.1.1,1.3-1.2a3.807,3.807,0,0,0-.6-.5,6.94,6.94,0,0,0-4.1-1.5,6.3,6.3,0,0,0-3.9.9,3.908,3.908,0,0,0-1.8,3,3.236,3.236,0,0,0,1,2.5,8.485,8.485,0,0,0,4.1,1.8,6.465,6.465,0,0,1,3,1.2,2.248,2.248,0,0,1,1,1.8,2.215,2.215,0,0,1-1.2,1.7,5.117,5.117,0,0,1-2.8.8,8.608,8.608,0,0,1-4.4-1.8l-.1-.1L88,17.9l.1.1a9.061,9.061,0,0,0,5.6,2.4,5.794,5.794,0,0,0,3.9-1.1,3.8,3.8,0,0,0,1.9-3.1A3.124,3.124,0,0,0,98.2,12.7Z" fill="#010101"/>
  <rect id="Rectangle_40" data-name="Rectangle 40" width="1.8" height="20.1" transform="translate(52.7 0.1)" fill="#010101"/>
</svg>
