<svg xmlns="http://www.w3.org/2000/svg" xmlns:xlink="http://www.w3.org/1999/xlink" width="71.566" height="67.735" viewBox="0 0 71.566 67.735">
  <defs>
    <linearGradient id="linear-gradient" x1="-34.363" y1="4.406" x2="-34.281" y2="4.406" gradientUnits="objectBoundingBox">
      <stop offset="0" stop-color="#f79210"/>
      <stop offset="0.5" stop-color="#f35c19"/>
      <stop offset="1" stop-color="#f79210"/>
    </linearGradient>
    <linearGradient id="linear-gradient-2" x1="-25.422" y1="3.33" x2="-25.361" y2="3.33" xlink:href="#linear-gradient"/>
    <linearGradient id="linear-gradient-3" x1="-18.688" y1="2.669" x2="-18.643" y2="2.669" xlink:href="#linear-gradient"/>
    <linearGradient id="linear-gradient-4" x1="-13.846" y1="2.194" x2="-13.812" y2="2.194" xlink:href="#linear-gradient"/>
    <linearGradient id="linear-gradient-5" x1="-10.507" y1="1.836" x2="-10.481" y2="1.836" xlink:href="#linear-gradient"/>
  </defs>
  <g id="Group_17" data-name="Group 17" transform="translate(-763.883 -1867.04)">
    <g id="g2468" transform="translate(788.376 1889.318)">
      <g id="g2470" transform="translate(0 0)">
        <g id="g2476">
          <g id="g2478">
            <path id="path2488" d="M528.5-68.161a1.258,1.258,0,0,0-.5,1.688h0a1.236,1.236,0,0,0,1.681.512h0a1.264,1.264,0,0,0,.5-1.7h0a1.238,1.238,0,0,0-1.093-.654h0a1.223,1.223,0,0,0-.59.151m3.33.052a1.112,1.112,0,0,0-.446,1.5h0a1.082,1.082,0,0,0,1.483.444h0a1.11,1.11,0,0,0,.452-1.5h0a1.086,1.086,0,0,0-.962-.583h0a1.086,1.086,0,0,0-.527.14m-6.49.893a1.413,1.413,0,0,0-.564,1.912h0a1.4,1.4,0,0,0,1.907.579h0a1.418,1.418,0,0,0,.564-1.912h0a1.4,1.4,0,0,0-1.24-.751h0a1.4,1.4,0,0,0-.667.172m9.685.157a.992.992,0,0,0-.4,1.326h0a.957.957,0,0,0,1.3.387h0a.961.961,0,0,0,.392-1.313h0a.955.955,0,0,0-.852-.514h0a.927.927,0,0,0-.445.114m-12.192,1.98a1.253,1.253,0,0,0-.506,1.7h0a1.23,1.23,0,0,0,1.672.5h0a1.245,1.245,0,0,0,.51-1.688h0a1.243,1.243,0,0,0-1.094-.663h0a1.183,1.183,0,0,0-.581.151m14.941.015a.841.841,0,0,0-.344,1.13h0a.844.844,0,0,0,1.128.342h0a.849.849,0,0,0,.336-1.135h0a.839.839,0,0,0-.73-.439h0a.8.8,0,0,0-.39.1m2.032,2.727a.716.716,0,0,0-.269.949h0a.68.68,0,0,0,.924.28h0a.684.684,0,0,0,.28-.934h0a.694.694,0,0,0-.616-.372h0a.7.7,0,0,0-.319.077m-18.762.088a1.128,1.128,0,0,0-.452,1.505h0a1.1,1.1,0,0,0,1.494.446h0a1.113,1.113,0,0,0,.452-1.5h0a1.118,1.118,0,0,0-.975-.579h0a1.109,1.109,0,0,0-.519.131m19.8,2.9a.83.83,0,0,0-.34,1.132h0a.825.825,0,0,0,1.107.346h0a.863.863,0,0,0,.349-1.143h0a.83.83,0,0,0-.728-.435h0a.8.8,0,0,0-.388.1m-20.67.381a.972.972,0,0,0-.387,1.307h0a.962.962,0,0,0,1.309.4h0a.982.982,0,0,0,.39-1.317h0a.956.956,0,0,0-.844-.51h0a.972.972,0,0,0-.469.123m20.674,2.783a.992.992,0,0,0-.394,1.324h0a.979.979,0,0,0,1.313.385h0a.971.971,0,0,0,.383-1.315h0a.946.946,0,0,0-.842-.51h0a1,1,0,0,0-.459.116m-20.536.616a.847.847,0,0,0-.329,1.134h0a.811.811,0,0,0,1.117.327h0a.82.82,0,0,0,.336-1.124h0a.844.844,0,0,0-.732-.435h0a.837.837,0,0,0-.392.1m19.537,2.407a1.123,1.123,0,0,0-.45,1.511h0a1.1,1.1,0,0,0,1.485.448h0a1.123,1.123,0,0,0,.459-1.509h0a1.11,1.11,0,0,0-.973-.583h0a1.076,1.076,0,0,0-.521.133m-18.383.816a.7.7,0,0,0-.276.947h0a.7.7,0,0,0,.936.282h0a.705.705,0,0,0,.275-.947h0a.7.7,0,0,0-.613-.364h0a.668.668,0,0,0-.321.082m16.465,1.77a1.253,1.253,0,0,0-.5,1.692h0a1.223,1.223,0,0,0,1.679.5h0a1.243,1.243,0,0,0,.5-1.686h0a1.254,1.254,0,0,0-1.093-.657h0a1.188,1.188,0,0,0-.583.153m-14.548.719a.832.832,0,0,0-.336,1.126h0a.809.809,0,0,0,1.115.331h0a.828.828,0,0,0,.336-1.121h0a.817.817,0,0,0-.726-.431h0a.824.824,0,0,0-.388.1m11.868,1.132a1.4,1.4,0,0,0-.564,1.912h0a1.414,1.414,0,0,0,1.907.575h0a1.425,1.425,0,0,0,.566-1.911h0a1.4,1.4,0,0,0-1.238-.753h0a1.374,1.374,0,0,0-.671.176M526-48.115a.958.958,0,0,0-.39,1.311h0a.95.95,0,0,0,1.3.4h0a.991.991,0,0,0,.394-1.326h0a.979.979,0,0,0-.85-.5h0a.9.9,0,0,0-.452.118m6.247.62a1.238,1.238,0,0,0-.486,1.692h0a1.208,1.208,0,0,0,1.668.5h0a1.243,1.243,0,0,0,.5-1.685h0a1.246,1.246,0,0,0-1.094-.656h0a1.247,1.247,0,0,0-.59.149m-3.2.194a1.118,1.118,0,0,0-.443,1.5h0a1.1,1.1,0,0,0,1.5.454h0a1.112,1.112,0,0,0,.448-1.509h0a1.1,1.1,0,0,0-.975-.575h0a1.128,1.128,0,0,0-.527.127" transform="translate(-519.669 68.313)" fill="url(#linear-gradient)"/>
          </g>
        </g>
      </g>
    </g>
    <g id="g2490" transform="translate(784.475 1884.922)">
      <g id="g2492" transform="translate(0 0)">
        <g id="g2498">
          <g id="g2500">
            <path id="path2510" d="M530.336-70.116a1.584,1.584,0,0,0,1.063,1.968h0a1.576,1.576,0,0,0,1.953-1.07h0a1.582,1.582,0,0,0-1.059-1.97h0a1.525,1.525,0,0,0-.452-.067h0a1.573,1.573,0,0,0-1.505,1.139m4.215.512a1.816,1.816,0,0,0,1.225,2.264h0a1.8,1.8,0,0,0,2.239-1.223h0a1.822,1.822,0,0,0-1.222-2.277h0a1.843,1.843,0,0,0-.508-.073h0a1.809,1.809,0,0,0-1.735,1.309m-8.447.37a1.414,1.414,0,0,0,.953,1.75h0a1.392,1.392,0,0,0,1.737-.954h0a1.423,1.423,0,0,0-.949-1.748h0a1.418,1.418,0,0,0-.39-.056h0a1.414,1.414,0,0,0-1.35,1.008M538.818-67.6a1.585,1.585,0,0,0,1.066,1.967h0a1.575,1.575,0,0,0,1.953-1.078h0a1.583,1.583,0,0,0-1.063-1.968h0a1.514,1.514,0,0,0-.443-.065h0a1.591,1.591,0,0,0-1.515,1.145m-16.353.616a1.107,1.107,0,0,0,.745,1.378h0a1.107,1.107,0,0,0,1.369-.753h0a1.117,1.117,0,0,0-.751-1.378h0a1.049,1.049,0,0,0-.31-.047h0a1.1,1.1,0,0,0-1.053.8m19.77,2.523a1.407,1.407,0,0,0,.945,1.752h0a1.4,1.4,0,0,0,1.739-.96h0a1.4,1.4,0,0,0-.949-1.741h0a1.37,1.37,0,0,0-.394-.058h0a1.411,1.411,0,0,0-1.341,1.007m-22.648.809a.893.893,0,0,0,.605,1.109h0a.891.891,0,0,0,1.106-.605h0a.9.9,0,0,0-.6-1.117h0a.91.91,0,0,0-.245-.034h0a.9.9,0,0,0-.865.646m25.078,3.231a1.108,1.108,0,0,0,.745,1.384h0a1.1,1.1,0,0,0,1.369-.753h0a1.1,1.1,0,0,0-.743-1.375h0a1.087,1.087,0,0,0-.316-.047h0a1.1,1.1,0,0,0-1.055.79m-26.772.906a.672.672,0,0,0,.446.839h0a.669.669,0,0,0,.829-.458h0a.675.675,0,0,0-.454-.835h0a.726.726,0,0,0-.187-.026h0a.661.661,0,0,0-.635.48m27.8,3.588a.893.893,0,0,0,.6,1.115h0a.889.889,0,0,0,1.108-.611h0a.9.9,0,0,0-.605-1.115h0a.948.948,0,0,0-.247-.035h0a.89.89,0,0,0-.861.646m-28.6.818A.9.9,0,0,0,517.7-54h0a.884.884,0,0,0,1.106-.605h0a.9.9,0,0,0-.6-1.117h0a.8.8,0,0,0-.246-.035h0a.915.915,0,0,0-.865.646m28.24,3.718a.675.675,0,0,0,.448.831h0a.658.658,0,0,0,.825-.456h0a.668.668,0,0,0-.448-.835h0a.673.673,0,0,0-.181-.024h0a.677.677,0,0,0-.644.484m-27.6.656a1.109,1.109,0,0,0,.745,1.378h0a1.1,1.1,0,0,0,1.365-.758h0a1.1,1.1,0,0,0-.745-1.365h0a1.088,1.088,0,0,0-.325-.049h0a1.077,1.077,0,0,0-1.04.794m25.476,3.35a.9.9,0,0,0,.6,1.113h0a.9.9,0,0,0,1.115-.605h0A.909.909,0,0,0,544.315-48h0a.882.882,0,0,0-.25-.035h0a.894.894,0,0,0-.857.646m-23.623.521a1.407,1.407,0,0,0,.945,1.75h0a1.4,1.4,0,0,0,1.743-.954h0a1.422,1.422,0,0,0-.954-1.756h0a1.37,1.37,0,0,0-.394-.058h0a1.405,1.405,0,0,0-1.339,1.018m20.342,2.693a1.124,1.124,0,0,0,.751,1.378h0a1.1,1.1,0,0,0,1.362-.747h0a1.105,1.105,0,0,0-.74-1.382h0a1.092,1.092,0,0,0-.314-.047h0a1.11,1.11,0,0,0-1.059.8m-17.257.359a1.584,1.584,0,0,0,1.065,1.963h0a1.584,1.584,0,0,0,1.957-1.076h0a1.593,1.593,0,0,0-1.074-1.967h0a1.544,1.544,0,0,0-.444-.065h0a1.565,1.565,0,0,0-1.5,1.145m3.818,1.853a1.826,1.826,0,0,0,1.227,2.267h0a1.811,1.811,0,0,0,2.243-1.234h0A1.825,1.825,0,0,0,528.73-43.2h0a1.79,1.79,0,0,0-.51-.073h0a1.8,1.8,0,0,0-1.733,1.307m9.224-.134a1.416,1.416,0,0,0,.951,1.75h0A1.394,1.394,0,0,0,538.4-41.3h0a1.4,1.4,0,0,0-.947-1.744h0a1.346,1.346,0,0,0-.4-.06h0a1.4,1.4,0,0,0-1.343,1.01m-4.562.79a1.588,1.588,0,0,0,1.07,1.959h0a1.559,1.559,0,0,0,1.95-1.066h0a1.586,1.586,0,0,0-1.061-1.97h0a1.637,1.637,0,0,0-.448-.065h0a1.578,1.578,0,0,0-1.511,1.143" transform="translate(-517.058 71.255)" fill="url(#linear-gradient-2)"/>
          </g>
        </g>
      </g>
    </g>
    <g id="g2512" transform="translate(779.144 1880.055)">
      <g id="g2514" transform="translate(0 0)">
        <g id="g2520">
          <g id="g2522">
            <path id="path2532" d="M535.122-73.947a1.817,1.817,0,0,0,.08,2.555h0a1.779,1.779,0,0,0,2.532-.075h0a1.821,1.821,0,0,0-.076-2.557h0a1.778,1.778,0,0,0-1.225-.489h0a1.8,1.8,0,0,0-1.311.566m-5.681.443a1.432,1.432,0,0,0,.063,2.015h0a1.41,1.41,0,0,0,2-.063h0a1.438,1.438,0,0,0-.062-2.011h0a1.4,1.4,0,0,0-.969-.385h0a1.411,1.411,0,0,0-1.029.444m11.248,1.081a2.045,2.045,0,0,0,.08,2.874h0a2.014,2.014,0,0,0,2.856-.082h0a2.047,2.047,0,0,0-.082-2.874h0a2.012,2.012,0,0,0-1.388-.558h0a2,2,0,0,0-1.466.641m-16.67,1.128a1.162,1.162,0,0,0,.047,1.629h0a1.143,1.143,0,0,0,1.619-.05h0a1.157,1.157,0,0,0-.047-1.625h0a1.145,1.145,0,0,0-.788-.316h0a1.144,1.144,0,0,0-.831.362M545.4-69.24a2.334,2.334,0,0,0,.092,3.3h0a2.309,2.309,0,0,0,3.278-.088h0a2.361,2.361,0,0,0-.092-3.317h0a2.3,2.3,0,0,0-1.587-.633h0a2.293,2.293,0,0,0-1.69.738m-25.883,1.825a.859.859,0,0,0,.034,1.214h0a.842.842,0,0,0,1.2-.034h0a.864.864,0,0,0-.032-1.216h0a.867.867,0,0,0-.59-.232h0a.84.84,0,0,0-.614.267m29.751,3.136a2.038,2.038,0,0,0,.086,2.874h0a2.006,2.006,0,0,0,2.85-.088h0a2.036,2.036,0,0,0-.088-2.876h0a1.979,1.979,0,0,0-1.375-.551h0a2.011,2.011,0,0,0-1.474.641m-33.325,1.623a1.15,1.15,0,0,0,.052,1.629h0a1.142,1.142,0,0,0,1.614-.043h0a1.162,1.162,0,0,0-.05-1.629h0a1.129,1.129,0,0,0-.783-.316h0a1.148,1.148,0,0,0-.833.359m35.5,4.187a1.808,1.808,0,0,0,.077,2.553h0a1.779,1.779,0,0,0,2.534-.077h0a1.81,1.81,0,0,0-.075-2.555h0a1.8,1.8,0,0,0-1.233-.489h0a1.769,1.769,0,0,0-1.3.568m-37.361,1.4a1.43,1.43,0,0,0,.062,2.008h0a1.408,1.408,0,0,0,2-.054h0a1.439,1.439,0,0,0-.058-2.015h0a1.411,1.411,0,0,0-.973-.388h0a1.4,1.4,0,0,0-1.027.45M551.889-52.2a1.432,1.432,0,0,0,.064,2.008h0a1.4,1.4,0,0,0,2-.06h0a1.422,1.422,0,0,0-.063-2.01h0a1.4,1.4,0,0,0-.967-.385h0a1.41,1.41,0,0,0-1.031.446m-37.914.868a1.823,1.823,0,0,0,.078,2.557h0a1.782,1.782,0,0,0,2.536-.075h0a1.822,1.822,0,0,0-.077-2.56h0a1.76,1.76,0,0,0-1.225-.491h0a1.8,1.8,0,0,0-1.313.57m36.446,5.085a1.165,1.165,0,0,0,.047,1.634h0a1.143,1.143,0,0,0,1.623-.056h0a1.162,1.162,0,0,0-.049-1.63h0a1.142,1.142,0,0,0-.786-.312h0a1.147,1.147,0,0,0-.835.364m-34.593.422a2.04,2.04,0,0,0,.077,2.874h0a2.019,2.019,0,0,0,2.856-.088h0a2.046,2.046,0,0,0-.082-2.872h0a1.982,1.982,0,0,0-1.376-.555h0a2.025,2.025,0,0,0-1.474.641m3.427,4.536a2.356,2.356,0,0,0,.1,3.309h0a2.3,2.3,0,0,0,3.278-.1h0a2.35,2.35,0,0,0-.1-3.307h0a2.323,2.323,0,0,0-1.593-.639h0a2.308,2.308,0,0,0-1.688.736m28.016.205a.868.868,0,0,0,.037,1.216h0a.842.842,0,0,0,1.2-.043h0a.849.849,0,0,0-.037-1.208h0a.83.83,0,0,0-.581-.235h0a.844.844,0,0,0-.622.271m-22.868,3.4a2.035,2.035,0,0,0,.091,2.867h0a2,2,0,0,0,2.848-.082h0a2.041,2.041,0,0,0-.086-2.876h0a2,2,0,0,0-1.38-.551h-.007a2,2,0,0,0-1.466.642m17.942.077a1.156,1.156,0,0,0,.045,1.629h0a1.14,1.14,0,0,0,1.619-.049h0a1.154,1.154,0,0,0-.049-1.627h0a1.131,1.131,0,0,0-.786-.316h0a1.129,1.129,0,0,0-.829.362m-12.055,1.75a1.81,1.81,0,0,0,.077,2.551h0a1.777,1.777,0,0,0,2.536-.071h0a1.809,1.809,0,0,0-.071-2.553h0a1.767,1.767,0,0,0-1.231-.493h0a1.794,1.794,0,0,0-1.311.566m6.24.09a1.432,1.432,0,0,0,.062,2.01h0a1.407,1.407,0,0,0,2-.065h0a1.423,1.423,0,0,0-.058-2.008h0a1.4,1.4,0,0,0-.969-.387h0a1.411,1.411,0,0,0-1.033.45" transform="translate(-513.49 74.512)" fill="url(#linear-gradient-3)"/>
          </g>
        </g>
      </g>
    </g>
    <g id="g2534" transform="translate(772.213 1874.204)">
      <g id="g2536" transform="translate(0 0)">
        <g id="g2542">
          <g id="g2544">
            <path id="path2554" d="M538.92-78.4a1.557,1.557,0,0,0-1.219,1.838h0a1.554,1.554,0,0,0,1.828,1.223h0a1.56,1.56,0,0,0,1.216-1.836h0a1.548,1.548,0,0,0-1.516-1.257h0a1.6,1.6,0,0,0-.308.032m-6.432.424a1.221,1.221,0,0,0-1.023,1.386h0a1.217,1.217,0,0,0,1.376,1.031h0a1.219,1.219,0,0,0,1.025-1.386h0a1.211,1.211,0,0,0-1.2-1.044h0a1.476,1.476,0,0,0-.179.013m12.63.895a1.89,1.89,0,0,0-1.356,2.3h0a1.877,1.877,0,0,0,2.288,1.365h0a1.893,1.893,0,0,0,1.354-2.3h0a1.881,1.881,0,0,0-1.819-1.427h0a1.831,1.831,0,0,0-.467.06m-19.21,1.072a1.14,1.14,0,0,0-.59,1.5h0a1.129,1.129,0,0,0,1.485.592h0a1.143,1.143,0,0,0,.592-1.494h0a1.129,1.129,0,0,0-1.036-.687h0a1.124,1.124,0,0,0-.45.093m24.7,1.729a2.363,2.363,0,0,0-1.539,2.956h0a2.341,2.341,0,0,0,2.934,1.55h0a2.365,2.365,0,0,0,1.541-2.956h0a2.345,2.345,0,0,0-2.232-1.658h0a2.354,2.354,0,0,0-.7.108m-30.641,1.742a1.229,1.229,0,0,0-.2,1.714h0a1.208,1.208,0,0,0,1.7.2h0a1.228,1.228,0,0,0,.2-1.718h0a1.2,1.2,0,0,0-.949-.463h0a1.224,1.224,0,0,0-.756.265m35.155,2.669a2.6,2.6,0,0,0-1.528,3.343h0a2.575,2.575,0,0,0,3.317,1.541h0a2.61,2.61,0,0,0,1.53-3.347h0a2.578,2.578,0,0,0-2.42-1.7h0a2.567,2.567,0,0,0-.9.162m-39.873,1.75a1.565,1.565,0,0,0-.37,2.179h0a1.544,1.544,0,0,0,2.161.37h0a1.567,1.567,0,0,0,.37-2.178h0a1.539,1.539,0,0,0-1.262-.661h0a1.531,1.531,0,0,0-.9.289m43.012,3.769a2.834,2.834,0,0,0-1.472,3.72h0a2.806,2.806,0,0,0,3.7,1.483h0a2.841,2.841,0,0,0,1.468-3.724h0a2.8,2.8,0,0,0-2.577-1.711h0a2.769,2.769,0,0,0-1.115.232m-46.316,1.675a1.9,1.9,0,0,0-.581,2.613h0a1.871,1.871,0,0,0,2.592.588h0a1.9,1.9,0,0,0,.583-2.616h0a1.868,1.868,0,0,0-1.585-.88h0a1.887,1.887,0,0,0-1.009.3m48.075,4.949a2.612,2.612,0,0,0-1.169,3.483h0a2.571,2.571,0,0,0,3.464,1.18h0a2.6,2.6,0,0,0,1.167-3.485h0a2.582,2.582,0,0,0-2.32-1.447h0a2.559,2.559,0,0,0-1.143.269m-49.823,1a2.362,2.362,0,0,0-.895,3.212h0a2.334,2.334,0,0,0,3.19.9h0a2.369,2.369,0,0,0,.9-3.216h0a2.335,2.335,0,0,0-2.043-1.2h-.009a2.3,2.3,0,0,0-1.139.3m49.911,5.879a2.377,2.377,0,0,0-.9,3.218h0a2.333,2.333,0,0,0,3.19.9h0a2.363,2.363,0,0,0,.9-3.212h0a2.339,2.339,0,0,0-2.043-1.206h0a2.309,2.309,0,0,0-1.147.3m-49.823.454a2.612,2.612,0,0,0-1.169,3.487h0a2.581,2.581,0,0,0,3.468,1.177h0a2.611,2.611,0,0,0,1.165-3.489h0a2.571,2.571,0,0,0-2.308-1.451h0a2.578,2.578,0,0,0-1.156.276M512.12-44.3a2.837,2.837,0,0,0-1.47,3.722h0a2.808,2.808,0,0,0,3.7,1.479h0a2.842,2.842,0,0,0,1.462-3.724h0a2.8,2.8,0,0,0-2.577-1.709h0a2.774,2.774,0,0,0-1.113.232m46.531.323a1.9,1.9,0,0,0-.583,2.611h0a1.867,1.867,0,0,0,2.592.588h0a1.9,1.9,0,0,0,.585-2.613h0a1.886,1.886,0,0,0-1.595-.88h0a1.859,1.859,0,0,0-1,.293m-42.958,5.513a2.609,2.609,0,0,0-1.528,3.343h0a2.568,2.568,0,0,0,3.319,1.537h0a2.6,2.6,0,0,0,1.53-3.345h0a2.589,2.589,0,0,0-2.424-1.7h0a2.524,2.524,0,0,0-.9.164m39.873.585a1.567,1.567,0,0,0-.37,2.178h0a1.548,1.548,0,0,0,2.166.375h0a1.573,1.573,0,0,0,.364-2.183h0a1.549,1.549,0,0,0-1.266-.659h0a1.534,1.534,0,0,0-.895.289m-34.965,4.2a2.358,2.358,0,0,0-1.537,2.955h0A2.326,2.326,0,0,0,522-29.173h0a2.357,2.357,0,0,0,1.541-2.951h0a2.348,2.348,0,0,0-2.239-1.66h0a2.324,2.324,0,0,0-.7.108m30.531.848a1.233,1.233,0,0,0-.2,1.714h0a1.2,1.2,0,0,0,1.705.2h0a1.229,1.229,0,0,0,.2-1.714h0a1.208,1.208,0,0,0-.953-.463h0a1.222,1.222,0,0,0-.756.263m-24.57,2.792a1.892,1.892,0,0,0-1.354,2.3h0a1.873,1.873,0,0,0,2.284,1.369h0a1.892,1.892,0,0,0,1.358-2.3h0a1.882,1.882,0,0,0-1.819-1.425h0a1.932,1.932,0,0,0-.469.06m19.245.51a1.137,1.137,0,0,0-.59,1.49h0a1.127,1.127,0,0,0,1.485.6h0a1.143,1.143,0,0,0,.594-1.5h0a1.133,1.133,0,0,0-1.04-.685h0a1.122,1.122,0,0,0-.448.093M533.08-28.112a1.566,1.566,0,0,0-1.216,1.84h0a1.551,1.551,0,0,0,1.826,1.229h0a1.567,1.567,0,0,0,1.218-1.845h0a1.559,1.559,0,0,0-1.524-1.253h0a1.543,1.543,0,0,0-.3.03m6.686.22a1.226,1.226,0,0,0-1.021,1.388h0a1.214,1.214,0,0,0,1.375,1.031h0a1.218,1.218,0,0,0,1.027-1.386h0a1.215,1.215,0,0,0-1.206-1.044h0a1.112,1.112,0,0,0-.174.011" transform="translate(-508.85 78.429)" fill="url(#linear-gradient-4)"/>
          </g>
        </g>
      </g>
    </g>
    <g id="g2556" transform="translate(763.883 1867.04)">
      <g id="g2558" transform="translate(0 0)">
        <g id="g2564">
          <g id="g2566">
            <path id="path2576" d="M537.612-81.771a1.451,1.451,0,0,0,1.445,1.457h0a1.452,1.452,0,0,0,1.449-1.457h0a1.448,1.448,0,0,0-1.449-1.453h0a1.447,1.447,0,0,0-1.445,1.453m-7.284-.4a1.563,1.563,0,0,0-1.1,1.912h0a1.555,1.555,0,0,0,1.9,1.107h0a1.569,1.569,0,0,0,1.1-1.918h0a1.551,1.551,0,0,0-1.5-1.158h0a1.552,1.552,0,0,0-.409.056m15.559,1.1a1.566,1.566,0,0,0,1.1,1.916h0a1.554,1.554,0,0,0,1.907-1.106h0a1.567,1.567,0,0,0-1.106-1.914h0a1.509,1.509,0,0,0-.4-.054h0a1.547,1.547,0,0,0-1.5,1.158M522.554-79.39a2,2,0,0,0-1.533,2.374h0a1.987,1.987,0,0,0,2.357,1.539h0a2,2,0,0,0,1.531-2.376h0a1.982,1.982,0,0,0-1.937-1.584h0a1.891,1.891,0,0,0-.418.047m30.655,1.537a2,2,0,0,0,1.531,2.376h0a1.985,1.985,0,0,0,2.355-1.539h0a1.99,1.99,0,0,0-1.529-2.372h0a1.911,1.911,0,0,0-.422-.047h0a1.979,1.979,0,0,0-1.935,1.582m-37.281,3.18a2.416,2.416,0,0,0-2,2.773h0a2.411,2.411,0,0,0,2.753,2.019h0a2.428,2.428,0,0,0,2-2.779h0a2.406,2.406,0,0,0-2.374-2.043h0a2.422,2.422,0,0,0-.383.03m43.507,2.015a2.429,2.429,0,0,0,2,2.779h0a2.413,2.413,0,0,0,2.755-2.019h0a2.417,2.417,0,0,0-2-2.773h0a2.4,2.4,0,0,0-.381-.03h0a2.41,2.41,0,0,0-2.377,2.043m4.5,6.779a3.026,3.026,0,0,0,2.672,3.322h0a3.01,3.01,0,0,0,3.3-2.693h0a3.012,3.012,0,0,0-2.669-3.322h0a3.077,3.077,0,0,0-.319-.017h0a3.015,3.015,0,0,0-2.984,2.71m-53.062-2.693a3.01,3.01,0,0,0-2.671,3.322h0a3,3,0,0,0,3.3,2.691h0a3.018,3.018,0,0,0,2.672-3.321h0a3.008,3.008,0,0,0-2.979-2.71h0a3.113,3.113,0,0,0-.321.017m55.97,10.647a3.328,3.328,0,0,0,3.126,3.507h0a3.327,3.327,0,0,0,3.485-3.158h0a3.321,3.321,0,0,0-3.134-3.5h0q-.09-.006-.179-.006h0a3.313,3.313,0,0,0-3.3,3.158m-59.057-3.152a3.319,3.319,0,0,0-3.13,3.5h0a3.327,3.327,0,0,0,3.483,3.158h0a3.329,3.329,0,0,0,3.132-3.507h0a3.314,3.314,0,0,0-3.306-3.158h0q-.09,0-.179.006m59.849,11.717a3.615,3.615,0,0,0,3.6,3.632h0a3.618,3.618,0,0,0,3.606-3.629h0a3.607,3.607,0,0,0-3.6-3.627h0a3.6,3.6,0,0,0-3.6,3.623m-64.363,0a3.623,3.623,0,0,0,3.606,3.629h0a3.617,3.617,0,0,0,3.6-3.632h0a3.605,3.605,0,0,0-3.6-3.623h0a3.613,3.613,0,0,0-3.606,3.627m66.7,5.061a3.326,3.326,0,0,0-3.126,3.5h0a3.314,3.314,0,0,0,3.477,3.154h0a3.321,3.321,0,0,0,3.132-3.5h0a3.325,3.325,0,0,0-3.307-3.158h0c-.058,0-.116,0-.176,0M504.661-41.14a3.321,3.321,0,0,0,3.13,3.5h0a3.316,3.316,0,0,0,3.485-3.154h0a3.329,3.329,0,0,0-3.132-3.5h0c-.06,0-.118,0-.176,0h0a3.326,3.326,0,0,0-3.307,3.158m61.95,4.985a3.024,3.024,0,0,0-2.672,3.324h0a3.009,3.009,0,0,0,3.3,2.689h0a3.011,3.011,0,0,0,2.671-3.322h0a3.013,3.013,0,0,0-2.982-2.708h0a3.1,3.1,0,0,0-.318.017m-58.4,2.691a3.011,3.011,0,0,0,2.671,3.322h0a3,3,0,0,0,3.3-2.689h0a3.02,3.02,0,0,0-2.672-3.324h0a3.113,3.113,0,0,0-.321-.017h0a3.006,3.006,0,0,0-2.977,2.708m53.234,4.633a2.425,2.425,0,0,0-2,2.775h0a2.407,2.407,0,0,0,2.757,2.015h0a2.419,2.419,0,0,0,2-2.773h0a2.418,2.418,0,0,0-2.377-2.047h0a2.562,2.562,0,0,0-.375.03M513.93-26.813a2.414,2.414,0,0,0,2,2.773h0a2.41,2.41,0,0,0,2.758-2.015h0a2.427,2.427,0,0,0-2.006-2.773h0a2.633,2.633,0,0,0-.379-.03h0a2.41,2.41,0,0,0-2.372,2.045m40.81,3.578a2,2,0,0,0-1.533,2.374h0a1.984,1.984,0,0,0,2.359,1.544h0a2,2,0,0,0,1.529-2.377h0a2,2,0,0,0-1.944-1.586h0a1.811,1.811,0,0,0-.411.045m-33.717,1.543a2,2,0,0,0,1.53,2.377h0a1.985,1.985,0,0,0,2.357-1.546h0a2,2,0,0,0-1.531-2.374h0a1.809,1.809,0,0,0-.411-.045h0a2,2,0,0,0-1.944,1.587m25.961,2.137a1.572,1.572,0,0,0-1.1,1.918h0a1.552,1.552,0,0,0,1.9,1.1h0a1.563,1.563,0,0,0,1.1-1.914h0a1.559,1.559,0,0,0-1.5-1.16h0a1.509,1.509,0,0,0-.4.054m-17.757,1.109a1.563,1.563,0,0,0,1.1,1.911h0a1.55,1.55,0,0,0,1.905-1.1h0a1.568,1.568,0,0,0-1.1-1.916h0a1.549,1.549,0,0,0-.4-.054h0a1.563,1.563,0,0,0-1.5,1.163m8.385,1.507a1.451,1.451,0,0,0,1.348,1.451h.2a1.451,1.451,0,0,0,1.35-1.453h0a1.453,1.453,0,0,0-1.449-1.455h0a1.453,1.453,0,0,0-1.445,1.457" transform="translate(-503.275 83.224)" fill="url(#linear-gradient-5)"/>
          </g>
        </g>
      </g>
    </g>
  </g>
</svg>
